<svg width="80" height="80" viewBox="0 0 80 80" fill="none" xmlns="http://www.w3.org/2000/svg">
<path fill-rule="evenodd" clip-rule="evenodd" d="M63.0442 11.9646L58.9056 14.2758L60.2273 26.0038L58.3422 32.0989H57.1179L57.3779 35.0014L61.3433 35.5604V56.0924H73.2393V36.1193L77.3888 35.5604L79.4689 15.899L72.1017 12.3408L70.2165 18.4252H69.5123L68.288 15.9958L70.4115 13.7813L64.8969 13.6201L67.1504 15.942L66.0562 18.3715H65.3519L63.0442 11.9646Z" fill="#E85323" stroke="#FEFEFE" stroke-width="0.243558" stroke-miterlimit="22.9256"/>
<path fill-rule="evenodd" clip-rule="evenodd" d="M35.4277 11.5132L28.0713 15.6303L28.9814 25.8319L34.821 28.5516L45.2544 28.9386L50.769 25.7244L51.8524 15.4476L44.496 11.8894L42.6 17.9738H41.8958L40.6932 15.4906L42.535 13.6739L37.8763 13.6416L39.5339 15.4906L38.3855 17.9308H37.7463L35.4277 11.5132Z" fill="#E85323" stroke="#FEFEFE" stroke-width="0.243558" stroke-miterlimit="22.9256"/>
<path fill-rule="evenodd" clip-rule="evenodd" d="M7.88721 11.9001L0.530762 16.0173L2.23174 34.9369L6.19707 35.4959V56.028H18.0822V36.0549L22.2317 35.4959L22.0909 31.7012L19.7832 25.2836L20.9966 14.2328L16.9446 12.2764L15.0595 18.3608L14.2794 18.3715L13.131 15.9313L15.0811 13.9856L10.1732 14.0716L11.9934 15.8776L10.8341 18.3178H10.2057L7.88721 11.9001Z" fill="#E85323" stroke="#FEFEFE" stroke-width="0.243558" stroke-miterlimit="22.9256"/>
<path fill-rule="evenodd" clip-rule="evenodd" d="M19.7833 25.2837L12.416 29.4116L14.117 48.3205L18.0823 48.8795V69.4115H29.9783V49.4492L34.1278 48.8795L36.5655 35.2057L35.3846 28.7021L28.8407 25.6599L26.9556 31.7551H26.0888L25.0596 29.2826L27.0422 26.7027L21.896 26.6274L23.8895 29.2719L22.8494 31.7013H22.091L19.7833 25.2837Z" fill="#E85323" stroke="#FEFEFE" stroke-width="0.243558" stroke-miterlimit="22.9256"/>
<path fill-rule="evenodd" clip-rule="evenodd" d="M12.4593 2.23608C15.4279 2.23608 17.8331 4.62253 17.8331 7.56797C17.8331 10.5134 15.4279 12.8999 12.4593 12.8999C9.49074 12.8999 7.07471 10.5134 7.07471 7.56797C7.07471 4.62253 9.47991 2.23608 12.4593 2.23608Z" fill="#E85323" stroke="white" stroke-width="0.872093" stroke-miterlimit="22.9256"/>
<path fill-rule="evenodd" clip-rule="evenodd" d="M40.0432 1.78467C43.0118 1.78467 45.4278 4.17112 45.4278 7.11656C45.4278 10.062 43.0226 12.4484 40.0432 12.4484C37.0746 12.4484 34.6694 10.062 34.6694 7.11656C34.6694 4.17112 37.0746 1.78467 40.0432 1.78467V1.78467Z" fill="#E85323" stroke="white" stroke-width="0.872093" stroke-miterlimit="22.9256"/>
<path fill-rule="evenodd" clip-rule="evenodd" d="M67.6921 1.93506C70.6607 1.93506 73.0659 4.32151 73.0659 7.26695C73.0659 10.2124 70.6607 12.5988 67.6921 12.5988C64.7236 12.5988 62.3184 10.2124 62.3184 7.26695C62.3184 4.32151 64.7236 1.93506 67.6921 1.93506V1.93506Z" fill="#E85323" stroke="white" stroke-width="0.872093" stroke-miterlimit="22.9256"/>
<path fill-rule="evenodd" clip-rule="evenodd" d="M55.8396 15.1575C58.8082 15.1575 61.2134 17.5439 61.2134 20.5001C61.2134 23.4455 58.8082 25.832 55.8396 25.832C52.871 25.832 50.4658 23.4455 50.4658 20.5001C50.4658 17.5547 52.871 15.1575 55.8396 15.1575V15.1575Z" fill="#E85323" stroke="#FEFEFE" stroke-width="0.872093" stroke-miterlimit="22.9256"/>
<path fill-rule="evenodd" clip-rule="evenodd" d="M24.4202 14.9639C27.3887 14.9639 29.8048 17.3503 29.8048 20.2958C29.8048 23.2412 27.3996 25.6276 24.4202 25.6276C21.4516 25.6276 19.0464 23.2412 19.0464 20.2958C19.0464 17.3503 21.4516 14.9639 24.4202 14.9639V14.9639Z" fill="#E85323" stroke="white" stroke-width="0.872093" stroke-miterlimit="22.9256"/>
<path fill-rule="evenodd" clip-rule="evenodd" d="M51.17 25.6277L45.2545 28.9386L44.1169 35.5605L45.5037 48.6645L49.4691 49.2342V69.7555H61.3542V49.7932L65.5146 49.2342L67.5839 29.5621L60.2274 26.0039L58.3423 32.0991H57.6272L56.4138 29.6159L58.1256 27.5519L53.6186 27.5304L55.2654 29.6159L54.1169 32.0453H53.4777L51.17 25.6277Z" fill="#E85323" stroke="#FEFEFE" stroke-width="0.243558" stroke-miterlimit="22.9256"/>
<path fill-rule="evenodd" clip-rule="evenodd" d="M40.4332 25.2192C43.4018 25.2192 45.807 27.6057 45.807 30.5511C45.807 33.4966 43.4018 35.8938 40.4332 35.8938C37.4646 35.8938 35.0486 33.5073 35.0486 30.5511C35.0486 27.6057 37.4538 25.2192 40.4332 25.2192Z" fill="#E85323" stroke="#FEFEFE" stroke-width="0.872093" stroke-miterlimit="22.9256"/>
<path fill-rule="evenodd" clip-rule="evenodd" d="M35.7419 35.3777L28.3855 39.4949L30.0756 58.4145L34.041 58.9734V79.5055H45.937V59.5324L50.0865 58.9734L52.1666 39.3121L44.7994 35.7539L42.9142 41.8383H42.21L40.9749 39.3229L42.6108 36.7967L38.028 36.7752L39.8481 39.3551L38.6889 41.7953H38.0605L35.7419 35.3777Z" fill="#E85323" stroke="#FEFEFE" stroke-width="0.243558" stroke-miterlimit="22.9256"/>
</svg>
