<svg width="548" height="125" viewBox="0 0 548 125" fill="none" xmlns="http://www.w3.org/2000/svg">
<g clip-path="url(#clip0_300_3)">
<path fill-rule="evenodd" clip-rule="evenodd" d="M449.707 7.29437L534.348 5.64294L533.586 81.3757H449.403L449.707 7.29437Z" fill="#ED7A51"/>
<path d="M527.993 74.8289L534.452 80.3638L532.719 82.3865L526.261 76.8515L527.993 74.8289Z" fill="#2B2A29"/>
<path d="M526.261 85.9012L532.719 80.3638L534.452 82.3864L527.993 87.9226L526.261 85.9012Z" fill="#2B2A29"/>
<path d="M157.829 59.2358V81.3757H154.802V59.2358H157.829Z" fill="#2B2A29"/>
<path d="M283.309 33.21V81.3757H280.281V33.21H283.309Z" fill="#2B2A29"/>
<path d="M545.66 6.24201L534.465 7.15225L534.229 4.13607L545.424 3.22583L545.66 6.24201Z" fill="#2B2A29"/>
<path d="M538.354 0.00012207L547.51 4.16911L541.992 12.5745L539.76 11.1154L543.577 5.29987L537.249 2.41968L538.354 0.00012207Z" fill="#2B2A29"/>
<path fill-rule="evenodd" clip-rule="evenodd" d="M156.316 59.2567C111.983 67.1365 66.1709 74.1428 19.278 80.6444L19.1641 81.3745H156.316V59.2567Z" fill="#F0855F" stroke="#FEFEFE" stroke-width="0.755882" stroke-miterlimit="22.9256"/>
<path fill-rule="evenodd" clip-rule="evenodd" d="M156.316 59.2566V81.3745H281.796V33.2185C241.907 42.9396 199.881 51.5128 156.316 59.2566Z" fill="#F0855F"/>
<path d="M157.829 60.5246V79.8615H280.28V35.1407C260.907 39.8365 241.032 44.2664 220.735 48.4599C200.125 52.7171 179.133 56.7269 157.829 60.5246ZM154.802 81.3757V57.9911L156.055 57.7682C177.885 53.8895 199.275 49.8112 220.132 45.5026C241.055 41.1804 261.521 36.6084 281.441 31.7533L283.309 31.2988V82.8899H154.802V81.3757Z" fill="#FEFEFE"/>
<path fill-rule="evenodd" clip-rule="evenodd" d="M281.795 33.2197V81.3757H369.492V8.69336C341.693 17.6402 312.372 25.7687 281.795 33.2197Z" fill="#F0855F"/>
<path d="M283.309 34.4033V79.8616H367.979V10.7639C354.678 15.0149 341.037 19.0798 327.089 22.9719C312.826 26.9523 298.221 30.7574 283.31 34.4033H283.309ZM280.282 81.3745V32.0352L281.442 31.7522C296.702 28.034 311.662 24.1407 326.284 20.0611C340.898 15.984 355.161 11.7194 369.032 7.25521L371.008 6.61938V82.8888H280.283V81.3745H280.282Z" fill="#FEFEFE"/>
<path fill-rule="evenodd" clip-rule="evenodd" d="M368.942 8.86978L449.707 7.29431L449.403 81.3757H368.942V8.86978Z" fill="#F0855F"/>
<path d="M370.456 8.86987V81.3758H367.429V8.86987H370.456Z" fill="white"/>
<path d="M450.918 7.29431V81.3757H447.889V7.29431H450.918Z" fill="white"/>
<path d="M0 80.0404H533.586V82.7111H0V80.0404Z" fill="#2B2A29"/>
<path d="M13.7896 79.8799C78.4585 70.9796 141.677 61.0074 201.486 49.1852C261.264 37.3692 317.588 23.7094 368.486 7.43282L368.697 7.36666C424.417 6.22242 480.148 5.14312 535.87 4.10669L535.092 81.3868L532.076 81.3623L532.822 7.18045L369.187 10.3718C318.183 26.6717 261.827 40.3376 202.064 52.1512C142.254 63.9733 78.9669 73.9566 14.1926 82.8691L13.7896 79.8775V79.8799Z" fill="#2B2A29"/>
<path d="M86.8245 78.27H85.5925V81H84.0105V78.27H80.5525V77.234L84.1365 71.13H85.5925V76.842H86.8245V78.27ZM84.0105 74.672L84.1645 73.412H84.1085L83.6885 74.546L82.5825 76.422L82.0225 76.954L82.7365 76.842H84.0105V74.672ZM89.8 79.712C90.2573 79.712 90.6027 79.558 90.836 79.25C91.0787 78.942 91.2 78.55 91.2 78.074C91.2 77.0193 90.6773 76.492 89.632 76.492H88.806V75.54L90.192 73.188L90.864 72.558L89.94 72.684H88.022V71.2H92.502V72.194L90.878 74.84L90.36 75.218V75.288L90.878 75.204C91.1393 75.2227 91.3913 75.2927 91.634 75.414C91.8767 75.5353 92.0867 75.708 92.264 75.932C92.4507 76.156 92.5953 76.436 92.698 76.772C92.81 77.108 92.866 77.5047 92.866 77.962C92.866 78.5127 92.7867 78.9887 92.628 79.39C92.4787 79.7913 92.2687 80.1273 91.998 80.398C91.7367 80.6687 91.424 80.8693 91.06 81C90.7053 81.1307 90.3227 81.196 89.912 81.196C89.5667 81.196 89.2027 81.1587 88.82 81.084C88.4373 81.0093 88.134 80.902 87.91 80.762L88.358 79.362C88.554 79.4647 88.7687 79.5487 89.002 79.614C89.2353 79.6793 89.5013 79.712 89.8 79.712Z" fill="white"/>
<path d="M217.824 70.27H216.592V73H215.01V70.27H211.552V69.234L215.136 63.13H216.592V68.842H217.824V70.27ZM215.01 66.672L215.164 65.412H215.108L214.688 66.546L213.582 68.422L213.022 68.954L213.736 68.842H215.01V66.672ZM218.7 70.648C218.7 70.312 218.737 70.0133 218.812 69.752C218.887 69.4813 218.989 69.2433 219.12 69.038C219.251 68.8233 219.395 68.632 219.554 68.464C219.722 68.296 219.899 68.142 220.086 68.002C219.722 67.7127 219.433 67.3813 219.218 67.008C219.013 66.6253 218.91 66.154 218.91 65.594C218.91 64.8007 219.129 64.1707 219.568 63.704C220.016 63.2373 220.627 63.004 221.402 63.004C222.111 63.004 222.685 63.2093 223.124 63.62C223.563 64.0307 223.782 64.614 223.782 65.37C223.782 65.9207 223.679 66.3873 223.474 66.77C223.269 67.1527 222.975 67.5073 222.592 67.834C223.059 68.1607 223.409 68.5293 223.642 68.94C223.875 69.3507 223.992 69.8687 223.992 70.494C223.992 70.914 223.922 71.292 223.782 71.628C223.651 71.964 223.465 72.2487 223.222 72.482C222.989 72.7153 222.709 72.8927 222.382 73.014C222.055 73.1353 221.701 73.196 221.318 73.196C220.926 73.196 220.571 73.1353 220.254 73.014C219.937 72.902 219.661 72.7387 219.428 72.524C219.195 72.3093 219.013 72.0433 218.882 71.726C218.761 71.4087 218.7 71.0493 218.7 70.648ZM222.382 70.494C222.382 70.2607 222.345 70.0507 222.27 69.864C222.195 69.6773 222.093 69.514 221.962 69.374C221.841 69.2247 221.701 69.0893 221.542 68.968C221.393 68.8467 221.243 68.73 221.094 68.618C220.767 68.87 220.539 69.1453 220.408 69.444C220.287 69.7333 220.226 70.0273 220.226 70.326C220.226 70.718 220.324 71.0493 220.52 71.32C220.716 71.5813 220.991 71.712 221.346 71.712C221.663 71.712 221.915 71.614 222.102 71.418C222.289 71.2127 222.382 70.9047 222.382 70.494ZM220.506 65.622C220.506 65.8367 220.534 66.028 220.59 66.196C220.655 66.3547 220.739 66.4993 220.842 66.63C220.945 66.7607 221.061 66.882 221.192 66.994C221.332 67.0967 221.477 67.1947 221.626 67.288C221.841 67.036 221.999 66.7887 222.102 66.546C222.214 66.294 222.27 66.0093 222.27 65.692C222.27 65.3093 222.181 65.0153 222.004 64.81C221.836 64.5953 221.631 64.488 221.388 64.488C221.08 64.488 220.856 64.6047 220.716 64.838C220.576 65.062 220.506 65.3233 220.506 65.622Z" fill="white"/>
<path d="M324.446 55.962C324.446 56.4567 324.376 56.9047 324.236 57.306C324.106 57.7073 323.919 58.048 323.676 58.328C323.443 58.608 323.158 58.8227 322.822 58.972C322.496 59.1213 322.136 59.196 321.744 59.196C321.334 59.196 320.956 59.126 320.61 58.986C320.265 58.8367 319.966 58.6127 319.714 58.314C319.462 58.0153 319.266 57.6327 319.126 57.166C318.986 56.69 318.916 56.13 318.916 55.486C318.916 54.534 319.028 53.6847 319.252 52.938C319.486 52.182 319.794 51.5333 320.176 50.992C320.568 50.4507 321.012 50.0167 321.506 49.69C322.01 49.354 322.538 49.1253 323.088 49.004L323.508 50.362C323.144 50.4553 322.804 50.6047 322.486 50.81C322.169 51.0153 321.884 51.2627 321.632 51.552C321.38 51.8413 321.166 52.1727 320.988 52.546C320.82 52.91 320.694 53.2973 320.61 53.708C320.769 53.484 320.97 53.302 321.212 53.162C321.455 53.022 321.754 52.952 322.108 52.952C322.444 52.952 322.752 53.0127 323.032 53.134C323.322 53.2553 323.569 53.442 323.774 53.694C323.989 53.946 324.152 54.2633 324.264 54.646C324.386 55.0193 324.446 55.458 324.446 55.962ZM322.836 56.06C322.836 55.4907 322.738 55.08 322.542 54.828C322.356 54.5667 322.066 54.436 321.674 54.436C321.394 54.436 321.156 54.5153 320.96 54.674C320.764 54.8327 320.624 55.0193 320.54 55.234C320.531 55.3367 320.526 55.444 320.526 55.556C320.526 55.6587 320.526 55.7613 320.526 55.864C320.526 56.1067 320.55 56.34 320.596 56.564C320.643 56.7787 320.713 56.9747 320.806 57.152C320.909 57.32 321.03 57.4553 321.17 57.558C321.32 57.6607 321.497 57.712 321.702 57.712C322.038 57.712 322.309 57.572 322.514 57.292C322.729 57.0027 322.836 56.592 322.836 56.06ZM325.49 54.086C325.49 53.1713 325.551 52.392 325.672 51.748C325.803 51.104 325.989 50.5813 326.232 50.18C326.475 49.7693 326.773 49.4707 327.128 49.284C327.483 49.0973 327.889 49.004 328.346 49.004C328.831 49.004 329.251 49.0973 329.606 49.284C329.97 49.4707 330.269 49.7693 330.502 50.18C330.745 50.5813 330.922 51.104 331.034 51.748C331.155 52.392 331.216 53.1713 331.216 54.086C331.216 55.01 331.151 55.7987 331.02 56.452C330.889 57.096 330.703 57.6233 330.46 58.034C330.217 58.4353 329.919 58.7293 329.564 58.916C329.209 59.1027 328.803 59.196 328.346 59.196C327.861 59.196 327.436 59.1027 327.072 58.916C326.717 58.72 326.423 58.4167 326.19 58.006C325.957 57.586 325.779 57.054 325.658 56.41C325.546 55.766 325.49 54.9913 325.49 54.086ZM327.156 54.086C327.156 55.3367 327.249 56.256 327.436 56.844C327.623 57.4227 327.931 57.712 328.36 57.712C328.565 57.712 328.743 57.6467 328.892 57.516C329.051 57.3853 329.177 57.1753 329.27 56.886C329.363 56.5967 329.433 56.2233 329.48 55.766C329.527 55.3087 329.55 54.7487 329.55 54.086C329.55 52.8447 329.457 51.9347 329.27 51.356C329.093 50.7773 328.785 50.488 328.346 50.488C328.131 50.488 327.949 50.5533 327.8 50.684C327.651 50.8147 327.529 51.0247 327.436 51.314C327.343 51.6033 327.273 51.9767 327.226 52.434C327.179 52.8913 327.156 53.442 327.156 54.086Z" fill="white"/>
<path d="M403.876 52.67C404.38 52.67 404.763 52.5067 405.024 52.18C405.286 51.8533 405.416 51.4333 405.416 50.92C405.416 50.332 405.262 49.9073 404.954 49.646C404.646 49.3847 404.203 49.254 403.624 49.254L402.714 49.31V44.2H406.788V45.824H404.142V47.826L404.604 47.77C405.36 47.798 405.962 48.078 406.41 48.61C406.858 49.142 407.082 49.8887 407.082 50.85C407.082 51.4007 407.003 51.886 406.844 52.306C406.686 52.726 406.466 53.076 406.186 53.356C405.916 53.636 405.589 53.846 405.206 53.986C404.824 54.126 404.408 54.196 403.96 54.196C403.624 54.196 403.284 54.1587 402.938 54.084C402.602 54.0187 402.327 53.93 402.112 53.818L402.546 52.404C402.892 52.5813 403.335 52.67 403.876 52.67ZM408.518 47.266C408.518 46.2767 408.751 45.488 409.218 44.9C409.694 44.3027 410.375 44.004 411.262 44.004C412.13 44.004 412.821 44.312 413.334 44.928C413.857 45.544 414.118 46.468 414.118 47.7C414.118 48.7827 414.001 49.7207 413.768 50.514C413.535 51.298 413.222 51.9513 412.83 52.474C412.438 52.9967 411.985 53.398 411.472 53.678C410.959 53.958 410.427 54.1307 409.876 54.196L409.484 52.796C410.324 52.628 410.977 52.264 411.444 51.704C411.911 51.1347 412.209 50.4487 412.34 49.646C412.163 49.8793 411.971 50.0427 411.766 50.136C411.561 50.2293 411.295 50.276 410.968 50.276C410.679 50.276 410.385 50.22 410.086 50.108C409.797 49.9867 409.535 49.8047 409.302 49.562C409.069 49.31 408.877 48.9973 408.728 48.624C408.588 48.2413 408.518 47.7887 408.518 47.266ZM410.128 47.168C410.128 47.7 410.24 48.106 410.464 48.386C410.697 48.6567 410.991 48.792 411.346 48.792C411.617 48.792 411.845 48.7453 412.032 48.652C412.219 48.5493 412.363 48.4093 412.466 48.232C412.485 48.1293 412.494 48.022 412.494 47.91C412.503 47.798 412.508 47.6907 412.508 47.588C412.508 47.2987 412.485 47.028 412.438 46.776C412.391 46.5147 412.317 46.2907 412.214 46.104C412.111 45.9173 411.981 45.768 411.822 45.656C411.663 45.544 411.472 45.488 411.248 45.488C410.893 45.488 410.618 45.6373 410.422 45.936C410.226 46.2347 410.128 46.6453 410.128 47.168Z" fill="white"/>
<path d="M490.446 50.962C490.446 51.4567 490.376 51.9047 490.236 52.306C490.106 52.7073 489.919 53.048 489.676 53.328C489.443 53.608 489.158 53.8227 488.822 53.972C488.496 54.1213 488.136 54.196 487.744 54.196C487.334 54.196 486.956 54.126 486.61 53.986C486.265 53.8367 485.966 53.6127 485.714 53.314C485.462 53.0153 485.266 52.6327 485.126 52.166C484.986 51.69 484.916 51.13 484.916 50.486C484.916 49.534 485.028 48.6847 485.252 47.938C485.486 47.182 485.794 46.5333 486.176 45.992C486.568 45.4507 487.012 45.0167 487.506 44.69C488.01 44.354 488.538 44.1253 489.088 44.004L489.508 45.362C489.144 45.4553 488.804 45.6047 488.486 45.81C488.169 46.0153 487.884 46.2627 487.632 46.552C487.38 46.8413 487.166 47.1727 486.988 47.546C486.82 47.91 486.694 48.2973 486.61 48.708C486.769 48.484 486.97 48.302 487.212 48.162C487.455 48.022 487.754 47.952 488.108 47.952C488.444 47.952 488.752 48.0127 489.032 48.134C489.322 48.2553 489.569 48.442 489.774 48.694C489.989 48.946 490.152 49.2633 490.264 49.646C490.386 50.0193 490.446 50.458 490.446 50.962ZM488.836 51.06C488.836 50.4907 488.738 50.08 488.542 49.828C488.356 49.5667 488.066 49.436 487.674 49.436C487.394 49.436 487.156 49.5153 486.96 49.674C486.764 49.8327 486.624 50.0193 486.54 50.234C486.531 50.3367 486.526 50.444 486.526 50.556C486.526 50.6587 486.526 50.7613 486.526 50.864C486.526 51.1067 486.55 51.34 486.596 51.564C486.643 51.7787 486.713 51.9747 486.806 52.152C486.909 52.32 487.03 52.4553 487.17 52.558C487.32 52.6607 487.497 52.712 487.702 52.712C488.038 52.712 488.309 52.572 488.514 52.292C488.729 52.0027 488.836 51.592 488.836 51.06ZM497.132 50.962C497.132 51.4567 497.062 51.9047 496.922 52.306C496.791 52.7073 496.605 53.048 496.362 53.328C496.129 53.608 495.844 53.8227 495.508 53.972C495.181 54.1213 494.822 54.196 494.43 54.196C494.019 54.196 493.641 54.126 493.296 53.986C492.951 53.8367 492.652 53.6127 492.4 53.314C492.148 53.0153 491.952 52.6327 491.812 52.166C491.672 51.69 491.602 51.13 491.602 50.486C491.602 49.534 491.714 48.6847 491.938 47.938C492.171 47.182 492.479 46.5333 492.862 45.992C493.254 45.4507 493.697 45.0167 494.192 44.69C494.696 44.354 495.223 44.1253 495.774 44.004L496.194 45.362C495.83 45.4553 495.489 45.6047 495.172 45.81C494.855 46.0153 494.57 46.2627 494.318 46.552C494.066 46.8413 493.851 47.1727 493.674 47.546C493.506 47.91 493.38 48.2973 493.296 48.708C493.455 48.484 493.655 48.302 493.898 48.162C494.141 48.022 494.439 47.952 494.794 47.952C495.13 47.952 495.438 48.0127 495.718 48.134C496.007 48.2553 496.255 48.442 496.46 48.694C496.675 48.946 496.838 49.2633 496.95 49.646C497.071 50.0193 497.132 50.458 497.132 50.962ZM495.522 51.06C495.522 50.4907 495.424 50.08 495.228 49.828C495.041 49.5667 494.752 49.436 494.36 49.436C494.08 49.436 493.842 49.5153 493.646 49.674C493.45 49.8327 493.31 50.0193 493.226 50.234C493.217 50.3367 493.212 50.444 493.212 50.556C493.212 50.6587 493.212 50.7613 493.212 50.864C493.212 51.1067 493.235 51.34 493.282 51.564C493.329 51.7787 493.399 51.9747 493.492 52.152C493.595 52.32 493.716 52.4553 493.856 52.558C494.005 52.6607 494.183 52.712 494.388 52.712C494.724 52.712 494.995 52.572 495.2 52.292C495.415 52.0027 495.522 51.592 495.522 51.06Z" fill="white"/>
</g>
<path d="M73.04 108.36C73.04 109.053 72.94 109.767 72.74 110.5C72.54 111.22 72.28 111.927 71.96 112.62C71.6533 113.313 71.3133 113.973 70.94 114.6C70.5667 115.227 70.2 115.78 69.84 116.26L68.96 117.08V117.18L70.16 116.88H73.26V119H66.24V117.62C66.52 117.273 66.82 116.88 67.14 116.44C67.4733 115.987 67.8 115.513 68.12 115.02C68.4533 114.513 68.7733 113.993 69.08 113.46C69.3867 112.913 69.6533 112.373 69.88 111.84C70.12 111.293 70.3067 110.76 70.44 110.24C70.5867 109.72 70.6467 109.233 70.62 108.78C70.6467 108.22 70.5267 107.767 70.26 107.42C69.9933 107.073 69.5733 106.9 69 106.9C68.6667 106.9 68.3267 106.98 67.98 107.14C67.6333 107.287 67.34 107.467 67.1 107.68L66.18 105.94C66.62 105.567 67.12 105.273 67.68 105.06C68.24 104.833 68.9 104.72 69.66 104.72C70.14 104.72 70.5867 104.8 71 104.96C71.4133 105.107 71.7667 105.333 72.06 105.64C72.3667 105.947 72.6067 106.327 72.78 106.78C72.9533 107.233 73.04 107.76 73.04 108.36ZM75.2508 111.98C75.2508 110.673 75.3374 109.56 75.5108 108.64C75.6974 107.72 75.9641 106.973 76.3108 106.4C76.6574 105.813 77.0841 105.387 77.5908 105.12C78.0974 104.853 78.6774 104.72 79.3308 104.72C80.0241 104.72 80.6241 104.853 81.1308 105.12C81.6508 105.387 82.0774 105.813 82.4108 106.4C82.7574 106.973 83.0108 107.72 83.1708 108.64C83.3441 109.56 83.4308 110.673 83.4308 111.98C83.4308 113.3 83.3374 114.427 83.1508 115.36C82.9641 116.28 82.6974 117.033 82.3508 117.62C82.0041 118.193 81.5774 118.613 81.0708 118.88C80.5641 119.147 79.9841 119.28 79.3308 119.28C78.6374 119.28 78.0308 119.147 77.5108 118.88C77.0041 118.6 76.5841 118.167 76.2508 117.58C75.9174 116.98 75.6641 116.22 75.4908 115.3C75.3308 114.38 75.2508 113.273 75.2508 111.98ZM77.6308 111.98C77.6308 113.767 77.7641 115.08 78.0308 115.92C78.2974 116.747 78.7374 117.16 79.3508 117.16C79.6441 117.16 79.8974 117.067 80.1108 116.88C80.3374 116.693 80.5174 116.393 80.6508 115.98C80.7841 115.567 80.8841 115.033 80.9508 114.38C81.0174 113.727 81.0508 112.927 81.0508 111.98C81.0508 110.207 80.9174 108.907 80.6508 108.08C80.3974 107.253 79.9574 106.84 79.3308 106.84C79.0241 106.84 78.7641 106.933 78.5508 107.12C78.3374 107.307 78.1641 107.607 78.0308 108.02C77.8974 108.433 77.7974 108.967 77.7308 109.62C77.6641 110.273 77.6308 111.06 77.6308 111.98ZM85.8416 116.88H88.1216V109.02L88.3816 107.66L87.5616 108.84L86.2416 109.86L85.1416 108.52L89.0016 104.76H90.4016V116.88H92.6416V119H85.8416V116.88ZM95.4123 119L99.1923 108.06L99.9123 107.08L98.9123 107.28H94.6923V105H102.272V105.76L97.7323 119H95.4123ZM204.7 108.36C204.7 109.053 204.6 109.767 204.4 110.5C204.2 111.22 203.94 111.927 203.62 112.62C203.313 113.313 202.973 113.973 202.6 114.6C202.227 115.227 201.86 115.78 201.5 116.26L200.62 117.08V117.18L201.82 116.88H204.92V119H197.9V117.62C198.18 117.273 198.48 116.88 198.8 116.44C199.133 115.987 199.46 115.513 199.78 115.02C200.113 114.513 200.433 113.993 200.74 113.46C201.047 112.913 201.313 112.373 201.54 111.84C201.78 111.293 201.967 110.76 202.1 110.24C202.247 109.72 202.307 109.233 202.28 108.78C202.307 108.22 202.187 107.767 201.92 107.42C201.653 107.073 201.233 106.9 200.66 106.9C200.327 106.9 199.987 106.98 199.64 107.14C199.293 107.287 199 107.467 198.76 107.68L197.84 105.94C198.28 105.567 198.78 105.273 199.34 105.06C199.9 104.833 200.56 104.72 201.32 104.72C201.8 104.72 202.247 104.8 202.66 104.96C203.073 105.107 203.427 105.333 203.72 105.64C204.027 105.947 204.267 106.327 204.44 106.78C204.613 107.233 204.7 107.76 204.7 108.36ZM206.911 111.98C206.911 110.673 206.998 109.56 207.171 108.64C207.358 107.72 207.624 106.973 207.971 106.4C208.318 105.813 208.744 105.387 209.251 105.12C209.758 104.853 210.338 104.72 210.991 104.72C211.684 104.72 212.284 104.853 212.791 105.12C213.311 105.387 213.738 105.813 214.071 106.4C214.418 106.973 214.671 107.72 214.831 108.64C215.004 109.56 215.091 110.673 215.091 111.98C215.091 113.3 214.998 114.427 214.811 115.36C214.624 116.28 214.358 117.033 214.011 117.62C213.664 118.193 213.238 118.613 212.731 118.88C212.224 119.147 211.644 119.28 210.991 119.28C210.298 119.28 209.691 119.147 209.171 118.88C208.664 118.6 208.244 118.167 207.911 117.58C207.578 116.98 207.324 116.22 207.151 115.3C206.991 114.38 206.911 113.273 206.911 111.98ZM209.291 111.98C209.291 113.767 209.424 115.08 209.691 115.92C209.958 116.747 210.398 117.16 211.011 117.16C211.304 117.16 211.558 117.067 211.771 116.88C211.998 116.693 212.178 116.393 212.311 115.98C212.444 115.567 212.544 115.033 212.611 114.38C212.678 113.727 212.711 112.927 212.711 111.98C212.711 110.207 212.578 108.907 212.311 108.08C212.058 107.253 211.618 106.84 210.991 106.84C210.684 106.84 210.424 106.933 210.211 107.12C209.998 107.307 209.824 107.607 209.691 108.02C209.558 108.433 209.458 108.967 209.391 109.62C209.324 110.273 209.291 111.06 209.291 111.98ZM217.502 116.88H219.782V109.02L220.042 107.66L219.222 108.84L217.902 109.86L216.802 108.52L220.662 104.76H222.062V116.88H224.302V119H217.502V116.88ZM226.313 115.64C226.313 115.16 226.366 114.733 226.473 114.36C226.579 113.973 226.726 113.633 226.913 113.34C227.099 113.033 227.306 112.76 227.533 112.52C227.773 112.28 228.026 112.06 228.293 111.86C227.773 111.447 227.359 110.973 227.053 110.44C226.759 109.893 226.613 109.22 226.613 108.42C226.613 107.287 226.926 106.387 227.553 105.72C228.193 105.053 229.066 104.72 230.173 104.72C231.186 104.72 232.006 105.013 232.633 105.6C233.259 106.187 233.573 107.02 233.573 108.1C233.573 108.887 233.426 109.553 233.133 110.1C232.839 110.647 232.419 111.153 231.873 111.62C232.539 112.087 233.039 112.613 233.373 113.2C233.706 113.787 233.873 114.527 233.873 115.42C233.873 116.02 233.773 116.56 233.573 117.04C233.386 117.52 233.119 117.927 232.773 118.26C232.439 118.593 232.039 118.847 231.573 119.02C231.106 119.193 230.599 119.28 230.053 119.28C229.493 119.28 228.986 119.193 228.533 119.02C228.079 118.86 227.686 118.627 227.353 118.32C227.019 118.013 226.759 117.633 226.573 117.18C226.399 116.727 226.313 116.213 226.313 115.64ZM231.573 115.42C231.573 115.087 231.519 114.787 231.413 114.52C231.306 114.253 231.159 114.02 230.973 113.82C230.799 113.607 230.599 113.413 230.373 113.24C230.159 113.067 229.946 112.9 229.733 112.74C229.266 113.1 228.939 113.493 228.753 113.92C228.579 114.333 228.493 114.753 228.493 115.18C228.493 115.74 228.633 116.213 228.913 116.6C229.193 116.973 229.586 117.16 230.093 117.16C230.546 117.16 230.906 117.02 231.173 116.74C231.439 116.447 231.573 116.007 231.573 115.42ZM228.893 108.46C228.893 108.767 228.933 109.04 229.013 109.28C229.106 109.507 229.226 109.713 229.373 109.9C229.519 110.087 229.686 110.26 229.873 110.42C230.073 110.567 230.279 110.707 230.493 110.84C230.799 110.48 231.026 110.127 231.173 109.78C231.333 109.42 231.413 109.013 231.413 108.56C231.413 108.013 231.286 107.593 231.033 107.3C230.793 106.993 230.499 106.84 230.153 106.84C229.713 106.84 229.393 107.007 229.193 107.34C228.993 107.66 228.893 108.033 228.893 108.46ZM312.63 108.36C312.63 109.053 312.53 109.767 312.33 110.5C312.13 111.22 311.87 111.927 311.55 112.62C311.243 113.313 310.903 113.973 310.53 114.6C310.157 115.227 309.79 115.78 309.43 116.26L308.55 117.08V117.18L309.75 116.88H312.85V119H305.83V117.62C306.11 117.273 306.41 116.88 306.73 116.44C307.063 115.987 307.39 115.513 307.71 115.02C308.043 114.513 308.363 113.993 308.67 113.46C308.977 112.913 309.243 112.373 309.47 111.84C309.71 111.293 309.897 110.76 310.03 110.24C310.177 109.72 310.237 109.233 310.21 108.78C310.237 108.22 310.117 107.767 309.85 107.42C309.583 107.073 309.163 106.9 308.59 106.9C308.257 106.9 307.917 106.98 307.57 107.14C307.223 107.287 306.93 107.467 306.69 107.68L305.77 105.94C306.21 105.567 306.71 105.273 307.27 105.06C307.83 104.833 308.49 104.72 309.25 104.72C309.73 104.72 310.177 104.8 310.59 104.96C311.003 105.107 311.357 105.333 311.65 105.64C311.957 105.947 312.197 106.327 312.37 106.78C312.543 107.233 312.63 107.76 312.63 108.36ZM314.841 111.98C314.841 110.673 314.927 109.56 315.101 108.64C315.287 107.72 315.554 106.973 315.901 106.4C316.247 105.813 316.674 105.387 317.181 105.12C317.687 104.853 318.267 104.72 318.921 104.72C319.614 104.72 320.214 104.853 320.721 105.12C321.241 105.387 321.667 105.813 322.001 106.4C322.347 106.973 322.601 107.72 322.761 108.64C322.934 109.56 323.021 110.673 323.021 111.98C323.021 113.3 322.927 114.427 322.741 115.36C322.554 116.28 322.287 117.033 321.941 117.62C321.594 118.193 321.167 118.613 320.661 118.88C320.154 119.147 319.574 119.28 318.921 119.28C318.227 119.28 317.621 119.147 317.101 118.88C316.594 118.6 316.174 118.167 315.841 117.58C315.507 116.98 315.254 116.22 315.081 115.3C314.921 114.38 314.841 113.273 314.841 111.98ZM317.221 111.98C317.221 113.767 317.354 115.08 317.621 115.92C317.887 116.747 318.327 117.16 318.941 117.16C319.234 117.16 319.487 117.067 319.701 116.88C319.927 116.693 320.107 116.393 320.241 115.98C320.374 115.567 320.474 115.033 320.541 114.38C320.607 113.727 320.641 112.927 320.641 111.98C320.641 110.207 320.507 108.907 320.241 108.08C319.987 107.253 319.547 106.84 318.921 106.84C318.614 106.84 318.354 106.933 318.141 107.12C317.927 107.307 317.754 107.607 317.621 108.02C317.487 108.433 317.387 108.967 317.321 109.62C317.254 110.273 317.221 111.06 317.221 111.98ZM325.431 116.88H327.711V109.02L327.971 107.66L327.151 108.84L325.831 109.86L324.731 108.52L328.591 104.76H329.991V116.88H332.231V119H325.431V116.88ZM333.982 109.38C333.982 107.967 334.316 106.84 334.982 106C335.662 105.147 336.636 104.72 337.902 104.72C339.142 104.72 340.129 105.16 340.862 106.04C341.609 106.92 341.982 108.24 341.982 110C341.982 111.547 341.816 112.887 341.482 114.02C341.149 115.14 340.702 116.073 340.142 116.82C339.582 117.567 338.936 118.14 338.202 118.54C337.469 118.94 336.709 119.187 335.922 119.28L335.362 117.28C336.562 117.04 337.496 116.52 338.162 115.72C338.829 114.907 339.256 113.927 339.442 112.78C339.189 113.113 338.916 113.347 338.622 113.48C338.329 113.613 337.949 113.68 337.482 113.68C337.069 113.68 336.649 113.6 336.222 113.44C335.809 113.267 335.436 113.007 335.102 112.66C334.769 112.3 334.496 111.853 334.282 111.32C334.082 110.773 333.982 110.127 333.982 109.38ZM336.282 109.24C336.282 110 336.442 110.58 336.762 110.98C337.096 111.367 337.516 111.56 338.022 111.56C338.409 111.56 338.736 111.493 339.002 111.36C339.269 111.213 339.476 111.013 339.622 110.76C339.649 110.613 339.662 110.46 339.662 110.3C339.676 110.14 339.682 109.987 339.682 109.84C339.682 109.427 339.649 109.04 339.582 108.68C339.516 108.307 339.409 107.987 339.262 107.72C339.116 107.453 338.929 107.24 338.702 107.08C338.476 106.92 338.202 106.84 337.882 106.84C337.376 106.84 336.982 107.053 336.702 107.48C336.422 107.907 336.282 108.493 336.282 109.24ZM395.95 108.36C395.95 109.053 395.85 109.767 395.65 110.5C395.45 111.22 395.19 111.927 394.87 112.62C394.563 113.313 394.223 113.973 393.85 114.6C393.477 115.227 393.11 115.78 392.75 116.26L391.87 117.08V117.18L393.07 116.88H396.17V119H389.15V117.62C389.43 117.273 389.73 116.88 390.05 116.44C390.383 115.987 390.71 115.513 391.03 115.02C391.363 114.513 391.683 113.993 391.99 113.46C392.297 112.913 392.563 112.373 392.79 111.84C393.03 111.293 393.217 110.76 393.35 110.24C393.497 109.72 393.557 109.233 393.53 108.78C393.557 108.22 393.437 107.767 393.17 107.42C392.903 107.073 392.483 106.9 391.91 106.9C391.577 106.9 391.237 106.98 390.89 107.14C390.543 107.287 390.25 107.467 390.01 107.68L389.09 105.94C389.53 105.567 390.03 105.273 390.59 105.06C391.15 104.833 391.81 104.72 392.57 104.72C393.05 104.72 393.497 104.8 393.91 104.96C394.323 105.107 394.677 105.333 394.97 105.64C395.277 105.947 395.517 106.327 395.69 106.78C395.863 107.233 395.95 107.76 395.95 108.36ZM398.161 111.98C398.161 110.673 398.248 109.56 398.421 108.64C398.608 107.72 398.874 106.973 399.221 106.4C399.568 105.813 399.994 105.387 400.501 105.12C401.008 104.853 401.588 104.72 402.241 104.72C402.934 104.72 403.534 104.853 404.041 105.12C404.561 105.387 404.988 105.813 405.321 106.4C405.668 106.973 405.921 107.72 406.081 108.64C406.254 109.56 406.341 110.673 406.341 111.98C406.341 113.3 406.248 114.427 406.061 115.36C405.874 116.28 405.608 117.033 405.261 117.62C404.914 118.193 404.488 118.613 403.981 118.88C403.474 119.147 402.894 119.28 402.241 119.28C401.548 119.28 400.941 119.147 400.421 118.88C399.914 118.6 399.494 118.167 399.161 117.58C398.828 116.98 398.574 116.22 398.401 115.3C398.241 114.38 398.161 113.273 398.161 111.98ZM400.541 111.98C400.541 113.767 400.674 115.08 400.941 115.92C401.208 116.747 401.648 117.16 402.261 117.16C402.554 117.16 402.808 117.067 403.021 116.88C403.248 116.693 403.428 116.393 403.561 115.98C403.694 115.567 403.794 115.033 403.861 114.38C403.928 113.727 403.961 112.927 403.961 111.98C403.961 110.207 403.828 108.907 403.561 108.08C403.308 107.253 402.868 106.84 402.241 106.84C401.934 106.84 401.674 106.933 401.461 107.12C401.248 107.307 401.074 107.607 400.941 108.02C400.808 108.433 400.708 108.967 400.641 109.62C400.574 110.273 400.541 111.06 400.541 111.98ZM415.052 108.36C415.052 109.053 414.952 109.767 414.752 110.5C414.552 111.22 414.292 111.927 413.972 112.62C413.665 113.313 413.325 113.973 412.952 114.6C412.578 115.227 412.212 115.78 411.852 116.26L410.972 117.08V117.18L412.172 116.88H415.272V119H408.252V117.62C408.532 117.273 408.832 116.88 409.152 116.44C409.485 115.987 409.812 115.513 410.132 115.02C410.465 114.513 410.785 113.993 411.092 113.46C411.398 112.913 411.665 112.373 411.892 111.84C412.132 111.293 412.318 110.76 412.452 110.24C412.598 109.72 412.658 109.233 412.632 108.78C412.658 108.22 412.538 107.767 412.272 107.42C412.005 107.073 411.585 106.9 411.012 106.9C410.678 106.9 410.338 106.98 409.992 107.14C409.645 107.287 409.352 107.467 409.112 107.68L408.192 105.94C408.632 105.567 409.132 105.273 409.692 105.06C410.252 104.833 410.912 104.72 411.672 104.72C412.152 104.72 412.598 104.8 413.012 104.96C413.425 105.107 413.778 105.333 414.072 105.64C414.378 105.947 414.618 106.327 414.792 106.78C414.965 107.233 415.052 107.76 415.052 108.36ZM417.263 111.98C417.263 110.673 417.349 109.56 417.523 108.64C417.709 107.72 417.976 106.973 418.323 106.4C418.669 105.813 419.096 105.387 419.603 105.12C420.109 104.853 420.689 104.72 421.343 104.72C422.036 104.72 422.636 104.853 423.143 105.12C423.663 105.387 424.089 105.813 424.423 106.4C424.769 106.973 425.023 107.72 425.183 108.64C425.356 109.56 425.443 110.673 425.443 111.98C425.443 113.3 425.349 114.427 425.163 115.36C424.976 116.28 424.709 117.033 424.363 117.62C424.016 118.193 423.589 118.613 423.083 118.88C422.576 119.147 421.996 119.28 421.343 119.28C420.649 119.28 420.043 119.147 419.523 118.88C419.016 118.6 418.596 118.167 418.263 117.58C417.929 116.98 417.676 116.22 417.503 115.3C417.343 114.38 417.263 113.273 417.263 111.98ZM419.643 111.98C419.643 113.767 419.776 115.08 420.043 115.92C420.309 116.747 420.749 117.16 421.363 117.16C421.656 117.16 421.909 117.067 422.123 116.88C422.349 116.693 422.529 116.393 422.663 115.98C422.796 115.567 422.896 115.033 422.963 114.38C423.029 113.727 423.063 112.927 423.063 111.98C423.063 110.207 422.929 108.907 422.663 108.08C422.409 107.253 421.969 106.84 421.343 106.84C421.036 106.84 420.776 106.933 420.563 107.12C420.349 107.307 420.176 107.607 420.043 108.02C419.909 108.433 419.809 108.967 419.743 109.62C419.676 110.273 419.643 111.06 419.643 111.98ZM483.372 108.36C483.372 109.053 483.272 109.767 483.072 110.5C482.872 111.22 482.612 111.927 482.292 112.62C481.985 113.313 481.645 113.973 481.272 114.6C480.899 115.227 480.532 115.78 480.172 116.26L479.292 117.08V117.18L480.492 116.88H483.592V119H476.572V117.62C476.852 117.273 477.152 116.88 477.472 116.44C477.805 115.987 478.132 115.513 478.452 115.02C478.785 114.513 479.105 113.993 479.412 113.46C479.719 112.913 479.985 112.373 480.212 111.84C480.452 111.293 480.639 110.76 480.772 110.24C480.919 109.72 480.979 109.233 480.952 108.78C480.979 108.22 480.859 107.767 480.592 107.42C480.325 107.073 479.905 106.9 479.332 106.9C478.999 106.9 478.659 106.98 478.312 107.14C477.965 107.287 477.672 107.467 477.432 107.68L476.512 105.94C476.952 105.567 477.452 105.273 478.012 105.06C478.572 104.833 479.232 104.72 479.992 104.72C480.472 104.72 480.919 104.8 481.332 104.96C481.745 105.107 482.099 105.333 482.392 105.64C482.699 105.947 482.939 106.327 483.112 106.78C483.285 107.233 483.372 107.76 483.372 108.36ZM485.583 111.98C485.583 110.673 485.669 109.56 485.843 108.64C486.029 107.72 486.296 106.973 486.643 106.4C486.989 105.813 487.416 105.387 487.923 105.12C488.429 104.853 489.009 104.72 489.663 104.72C490.356 104.72 490.956 104.853 491.463 105.12C491.983 105.387 492.409 105.813 492.743 106.4C493.089 106.973 493.343 107.72 493.503 108.64C493.676 109.56 493.763 110.673 493.763 111.98C493.763 113.3 493.669 114.427 493.483 115.36C493.296 116.28 493.029 117.033 492.683 117.62C492.336 118.193 491.909 118.613 491.403 118.88C490.896 119.147 490.316 119.28 489.663 119.28C488.969 119.28 488.363 119.147 487.843 118.88C487.336 118.6 486.916 118.167 486.583 117.58C486.249 116.98 485.996 116.22 485.823 115.3C485.663 114.38 485.583 113.273 485.583 111.98ZM487.963 111.98C487.963 113.767 488.096 115.08 488.363 115.92C488.629 116.747 489.069 117.16 489.683 117.16C489.976 117.16 490.229 117.067 490.443 116.88C490.669 116.693 490.849 116.393 490.983 115.98C491.116 115.567 491.216 115.033 491.283 114.38C491.349 113.727 491.383 112.927 491.383 111.98C491.383 110.207 491.249 108.907 490.983 108.08C490.729 107.253 490.289 106.84 489.663 106.84C489.356 106.84 489.096 106.933 488.883 107.12C488.669 107.307 488.496 107.607 488.363 108.02C488.229 108.433 488.129 108.967 488.063 109.62C487.996 110.273 487.963 111.06 487.963 111.98ZM502.474 108.36C502.474 109.053 502.374 109.767 502.174 110.5C501.974 111.22 501.714 111.927 501.394 112.62C501.087 113.313 500.747 113.973 500.374 114.6C500 115.227 499.634 115.78 499.274 116.26L498.394 117.08V117.18L499.594 116.88H502.694V119H495.674V117.62C495.954 117.273 496.254 116.88 496.574 116.44C496.907 115.987 497.234 115.513 497.554 115.02C497.887 114.513 498.207 113.993 498.514 113.46C498.82 112.913 499.087 112.373 499.314 111.84C499.554 111.293 499.74 110.76 499.874 110.24C500.02 109.72 500.08 109.233 500.054 108.78C500.08 108.22 499.96 107.767 499.694 107.42C499.427 107.073 499.007 106.9 498.434 106.9C498.1 106.9 497.76 106.98 497.414 107.14C497.067 107.287 496.774 107.467 496.534 107.68L495.614 105.94C496.054 105.567 496.554 105.273 497.114 105.06C497.674 104.833 498.334 104.72 499.094 104.72C499.574 104.72 500.02 104.8 500.434 104.96C500.847 105.107 501.2 105.333 501.494 105.64C501.8 105.947 502.04 106.327 502.214 106.78C502.387 107.233 502.474 107.76 502.474 108.36ZM505.724 116.88H508.004V109.02L508.264 107.66L507.444 108.84L506.124 109.86L505.024 108.52L508.884 104.76H510.284V116.88H512.524V119H505.724V116.88Z" fill="#E85323"/>
<defs>
<clipPath id="clip0_300_3">
<rect width="547.51" height="87.9228" fill="white"/>
</clipPath>
</defs>
</svg>
