<svg width="82" height="80" viewBox="0 0 82 80" fill="none" xmlns="http://www.w3.org/2000/svg">
<path fill-rule="evenodd" clip-rule="evenodd" d="M8.37873 19.5072L14.1335 14.9078L24.4877 20.4337L29.098 18.3628L32.7819 6.62442L39.9972 6.46094L43.1361 17.9051L48.4331 20.4337L59.0271 15.1367L64.7819 19.965L59.7138 30.0903L61.3268 35.8451L72.1497 38.3737L72.6075 46.4282L61.7846 49.6543L58.3296 55.6379L65.4685 65.0766L60.1715 70.8314L49.3487 65.7633L43.8228 68.063L40.8255 78.8858H33.4577L29.316 67.6052L24.019 64.8477L14.1226 71.2673L7.94276 65.2728L13.425 55.6488L11.3542 48.5099L1.68665 46.8968L1 38.3846L11.3542 36.3137L13.8828 30.1012L8.35693 19.5072H8.37873ZM36.5749 26.6135C45.3487 26.6135 52.4549 33.7197 52.4549 42.5045C52.4549 51.2783 45.3487 58.3845 36.5749 58.3845C27.801 58.3845 20.6839 51.2783 20.6839 42.5045C20.6839 33.7306 27.801 26.6135 36.5749 26.6135Z" fill="#FF5000" stroke="white" stroke-width="0.998896" stroke-miterlimit="22.9256"/>
<path fill-rule="evenodd" clip-rule="evenodd" d="M35.5831 10.2316L39.6485 6.97274L46.9727 10.8746L50.2316 9.41415L52.8365 1.11989L57.9373 1L60.1607 9.08718L63.8991 10.8746L71.3868 7.13623L75.4522 10.5477L71.8773 17.7084L73.0217 21.7738L80.6729 23.5613L80.9999 29.2615L73.3487 31.5394L70.9073 35.7683L75.9536 42.4386L72.2152 46.504L64.564 42.9291L60.6621 44.553L58.5476 52.2043H53.3378L50.406 44.2261L46.6676 42.2751L39.5504 46.8964L35.7684 43.0926L39.1907 35.7683L37.7302 30.722L30.8965 29.5776L30.406 23.5613L37.7302 22.1008L39.5177 17.7084L35.6158 10.2207L35.5831 10.2316ZM55.5068 15.2452C61.7084 15.2452 66.7329 20.2697 66.7329 26.4713C66.7329 32.673 61.7084 37.6975 55.5068 37.6975C49.3051 37.6975 44.2806 32.673 44.2806 26.4713C44.2806 20.2697 49.3051 15.2452 55.5068 15.2452V15.2452Z" fill="#FF5000" stroke="white" stroke-width="0.998896" stroke-miterlimit="22.9256"/>
</svg>
