<svg width="288" height="132" viewBox="0 0 288 132" fill="none" xmlns="http://www.w3.org/2000/svg">
<path d="M100.889 112.405H112.159C115.927 112.405 117.306 111.083 117.306 104.883C117.306 98.9527 116.028 97.5973 112.159 97.5973H100.889V112.405ZM100.889 130.804C100.889 131.075 100.687 131.279 100.418 131.279H97.626C97.3569 131.279 97.155 131.075 97.155 130.804V94.9204C97.155 94.6494 97.3569 94.446 97.626 94.446H112.159C118.046 94.446 121.343 98.0378 121.343 104.916C121.343 111.456 119.089 115.59 112.159 115.59H100.889V130.804Z" fill="#717B83"/>
<path d="M128.575 131.279C128.306 131.279 128.104 131.075 128.104 130.804V94.9204C128.104 94.6494 128.306 94.446 128.575 94.446H148.996C149.265 94.446 149.466 94.6494 149.466 94.9204V97.1568C149.466 97.4279 149.265 97.6312 148.996 97.6312H131.839V110.169H145.867C146.136 110.169 146.338 110.372 146.338 110.643V112.845C146.338 113.116 146.136 113.32 145.867 113.32H131.839V128.127H148.996C149.265 128.127 149.466 128.331 149.466 128.602V130.804C149.466 131.075 149.265 131.279 148.996 131.279H128.575Z" fill="#717B83"/>
<path d="M180.82 94.8865C180.921 94.5815 181.358 94.4121 181.627 94.4121H186.236C186.505 94.4121 186.673 94.6154 186.774 94.8865V130.77C186.774 131.041 186.573 131.245 186.303 131.245H183.511C183.242 131.245 183.04 131.041 183.04 130.77V102.883L183.242 98.1394L182.031 102.849L173.789 127.992C173.688 128.263 173.52 128.466 173.251 128.466H169.786C169.517 128.466 169.348 128.263 169.247 127.992L160.905 102.849L159.693 98.1394L159.895 102.883V130.77C159.895 131.041 159.693 131.245 159.424 131.245H156.632C156.363 131.245 156.161 131.041 156.161 130.77V94.8865C156.262 94.6154 156.43 94.4121 156.699 94.4121H161.308C161.577 94.4121 161.981 94.5815 162.082 94.8865L170.728 121.621L171.636 125.247L172.511 121.621L180.753 94.8865H180.82Z" fill="#717B83"/>
<path d="M219.372 112.507C219.372 98.4445 216.984 96.9536 209.415 96.9536C201.745 96.9536 199.323 98.4445 199.323 112.507C199.323 127.043 201.745 128.534 209.415 128.534C216.984 128.534 219.372 127.043 219.372 112.507ZM195.252 112.507C195.252 96.9536 200.13 93.5312 209.347 93.5312C218.599 93.5312 223.477 96.9536 223.477 112.507C223.477 128.568 218.599 132.024 209.347 132.024C200.13 132.024 195.252 128.602 195.252 112.507Z" fill="#717B83"/>
<path d="M256.613 130.77C256.613 131.041 256.411 131.245 256.142 131.245H253.35C253.081 131.245 252.879 131.041 252.879 130.77V113.218H235.655V130.77C235.655 131.041 235.453 131.245 235.184 131.245H232.391C232.122 131.245 231.92 131.041 231.92 130.77V94.8865C231.92 94.6154 232.122 94.4121 232.391 94.4121H235.184C235.453 94.4121 235.655 94.6154 235.655 94.8865V110.067H252.879V94.8865C252.879 94.6154 253.081 94.4121 253.35 94.4121H256.142C256.411 94.4121 256.613 94.6154 256.613 94.8865V130.77Z" fill="#717B83"/>
<path d="M288 94.8865V97.1229C288 97.394 287.798 97.5973 287.529 97.5973H276.764V130.77C276.764 131.041 276.562 131.245 276.293 131.245H273.501C273.232 131.245 273.03 131.041 273.03 130.77V97.5973H262.265C261.996 97.5973 261.794 97.394 261.794 97.1229V94.8865C261.794 94.6154 261.996 94.4121 262.265 94.4121H287.495C287.764 94.4121 287.966 94.6154 287.966 94.8865H288Z" fill="#717B83"/>
<path fill-rule="evenodd" clip-rule="evenodd" d="M111.587 0.00952148V24.3048C123.731 25.1519 133.554 34.9785 134.362 47.2447H158.482V28.3371H132.007C131.132 28.3371 130.325 27.5578 130.325 26.6768V0.00952148H111.587V0.00952148Z" fill="#E94E0F"/>
<path fill-rule="evenodd" clip-rule="evenodd" d="M130.325 75.5724V48.9052C130.325 37.5877 121.141 28.3372 109.905 28.3372H83.4294V47.2448H109.905C110.78 47.2448 111.587 48.0241 111.587 48.939V75.6063H130.359L130.325 75.5724Z" fill="#717B83"/>
<path fill-rule="evenodd" clip-rule="evenodd" d="M28.1236 48.9052C28.1236 48.0242 27.3499 47.2109 26.4416 47.2109H-0.0338135V28.3372H24.0867C24.8941 40.5695 34.7173 50.43 46.8616 51.2771V110.711C46.8616 111.592 47.6354 112.405 48.5437 112.405H74.9855V131.313H48.5437C37.3076 131.313 28.1236 122.062 28.1236 110.745V48.939V48.9052Z" fill="#717B83"/>
<path fill-rule="evenodd" clip-rule="evenodd" d="M75.0192 47.2447H48.5774C37.3413 47.2447 28.1573 37.9942 28.1573 26.6768V0.00952148H46.8953V26.6768C46.8953 27.5578 47.6691 28.3371 48.5774 28.3371H75.0192V47.2109V47.2447Z" fill="#E94E0F"/>
</svg>
