<svg width="573" height="242" viewBox="0 0 573 242" fill="none" xmlns="http://www.w3.org/2000/svg">
<g clip-path="url(#clip0_300_2)">
<path d="M565.147 192.128L572.787 198.677L565.147 205.222L563.416 203.199L568.695 198.676L563.416 194.151L565.147 192.128Z" fill="#2B2A29"/>
<path d="M157.831 152.726V198.676H154.803V152.726H157.831Z" fill="#2B2A29"/>
<path d="M283.311 98.6327V198.676H280.283V98.6327H283.311Z" fill="#2B2A29"/>
<path d="M558.063 0L567.354 3.86139L562.115 12.4519L559.842 11.0649L563.46 5.1302L557.04 2.46161L558.063 0Z" fill="#2B2A29"/>
<path d="M565.862 5.93361L557.393 8.63261L556.482 5.75937L564.951 3.0592L565.862 5.93361Z" fill="#2B2A29"/>
<path fill-rule="evenodd" clip-rule="evenodd" d="M156.316 198.676V152.726C108.85 170.254 62.9249 183.131 15.2247 198.676C60.4271 199.39 111.062 198.676 156.316 198.676Z" fill="#F15922" stroke="#FEFEFE" stroke-width="0.755438" stroke-miterlimit="22.9256"/>
<path fill-rule="evenodd" clip-rule="evenodd" d="M156.316 152.725V198.674C201.123 198.674 244.983 198.674 281.796 198.674V98.6315C241.906 118.828 199.881 136.637 156.316 152.725Z" fill="#F15922"/>
<path d="M157.831 153.777V197.16H280.281V101.087C261.001 110.788 241.225 119.937 221.024 128.608C200.363 137.478 179.271 145.842 157.829 153.776L157.831 153.777ZM154.803 198.673V151.672L155.796 151.304C177.574 143.262 198.952 134.795 219.842 125.828C240.749 116.854 261.2 107.365 281.116 97.282L283.309 96.1722V200.187H154.803V198.672V198.673Z" fill="#FEFEFE"/>
<path fill-rule="evenodd" clip-rule="evenodd" d="M281.796 98.6314V198.674C315.448 198.674 341.696 198.674 369.494 198.674V47.6768C341.696 66.2645 312.373 83.1496 281.796 98.6314Z" fill="#F15922"/>
<path d="M283.309 99.5588V197.16H367.98V50.4974C354.792 59.2446 341.266 67.6117 327.444 75.6256C313.056 83.967 298.33 91.933 283.309 99.5588ZM280.282 198.673V97.7064L281.116 97.2819C296.381 89.5521 311.334 81.4715 325.93 73.0108C340.536 64.5431 354.793 55.6895 368.654 46.422L371.008 44.8491V200.186H280.282V198.672V198.673Z" fill="#FEFEFE"/>
<path d="M0.00012207 197.34H571.247V200.011H0.00012207V197.34Z" fill="#2B2A29"/>
<path fill-rule="evenodd" clip-rule="evenodd" d="M369.494 197.661H453.523V47.678H369.494V197.661Z" fill="#F15922"/>
<path d="M371.008 47.6768V197.659H367.98V47.6768H371.008Z" fill="#FEFEFE"/>
<path d="M13.5781 197.221C77.5939 178.916 141.092 157.826 201.215 133.007C261.334 108.191 318.102 79.6403 368.665 46.4186L369.053 46.1637H453.251L558.453 5.26123V198.676H555.425V9.67575L453.794 49.1924H369.933C319.287 82.4235 262.489 110.982 202.364 135.8C142.092 160.682 78.4909 181.808 14.4072 200.132L13.5805 197.222L13.5781 197.221Z" fill="#2B2A29"/>
<path fill-rule="evenodd" clip-rule="evenodd" d="M453.523 198.674H556.938V7.19421L453.521 47.678L453.523 198.674Z" fill="#F04E13"/>
<path d="M455.036 197.161H555.424V9.41021L455.036 48.7082V197.161ZM556.938 200.189H452.008V46.6465C487.475 32.7271 522.967 18.8544 558.453 4.97815V200.189H556.939H556.938Z" fill="#2B2A29"/>
<path d="M455.037 47.6768V197.659H452.01V47.6768H455.037Z" fill="#FEFEFE"/>
<path d="M81.2717 191.712C81.729 191.712 82.0743 191.558 82.3077 191.25C82.5503 190.942 82.6717 190.55 82.6717 190.074C82.6717 189.019 82.149 188.492 81.1037 188.492H80.2777V187.54L81.6637 185.188L82.3357 184.558L81.4117 184.684H79.4937V183.2H83.9737V184.194L82.3497 186.84L81.8317 187.218V187.288L82.3497 187.204C82.611 187.223 82.863 187.293 83.1057 187.414C83.3483 187.535 83.5583 187.708 83.7357 187.932C83.9223 188.156 84.067 188.436 84.1697 188.772C84.2817 189.108 84.3377 189.505 84.3377 189.962C84.3377 190.513 84.2583 190.989 84.0997 191.39C83.9503 191.791 83.7403 192.127 83.4697 192.398C83.2083 192.669 82.8957 192.869 82.5317 193C82.177 193.131 81.7943 193.196 81.3837 193.196C81.0383 193.196 80.6743 193.159 80.2917 193.084C79.909 193.009 79.6057 192.902 79.3817 192.762L79.8297 191.362C80.0257 191.465 80.2403 191.549 80.4737 191.614C80.707 191.679 80.973 191.712 81.2717 191.712ZM91.2892 189.962C91.2892 190.457 91.2192 190.905 91.0792 191.306C90.9486 191.707 90.7619 192.048 90.5192 192.328C90.2859 192.608 90.0012 192.823 89.6652 192.972C89.3386 193.121 88.9792 193.196 88.5872 193.196C88.1766 193.196 87.7986 193.126 87.4532 192.986C87.1079 192.837 86.8092 192.613 86.5572 192.314C86.3052 192.015 86.1092 191.633 85.9692 191.166C85.8292 190.69 85.7592 190.13 85.7592 189.486C85.7592 188.534 85.8712 187.685 86.0952 186.938C86.3286 186.182 86.6366 185.533 87.0192 184.992C87.4112 184.451 87.8546 184.017 88.3492 183.69C88.8532 183.354 89.3806 183.125 89.9312 183.004L90.3512 184.362C89.9872 184.455 89.6466 184.605 89.3292 184.81C89.0119 185.015 88.7272 185.263 88.4752 185.552C88.2232 185.841 88.0086 186.173 87.8312 186.546C87.6632 186.91 87.5372 187.297 87.4532 187.708C87.6119 187.484 87.8126 187.302 88.0552 187.162C88.2979 187.022 88.5966 186.952 88.9512 186.952C89.2872 186.952 89.5952 187.013 89.8752 187.134C90.1646 187.255 90.4119 187.442 90.6172 187.694C90.8319 187.946 90.9952 188.263 91.1072 188.646C91.2286 189.019 91.2892 189.458 91.2892 189.962ZM89.6792 190.06C89.6792 189.491 89.5812 189.08 89.3852 188.828C89.1986 188.567 88.9092 188.436 88.5172 188.436C88.2372 188.436 87.9992 188.515 87.8032 188.674C87.6072 188.833 87.4672 189.019 87.3832 189.234C87.3739 189.337 87.3692 189.444 87.3692 189.556C87.3692 189.659 87.3692 189.761 87.3692 189.864C87.3692 190.107 87.3926 190.34 87.4392 190.564C87.4859 190.779 87.5559 190.975 87.6492 191.152C87.7519 191.32 87.8732 191.455 88.0132 191.558C88.1626 191.661 88.3399 191.712 88.5452 191.712C88.8812 191.712 89.1519 191.572 89.3572 191.292C89.5719 191.003 89.6792 190.592 89.6792 190.06ZM93.0608 191.516H94.6568V186.014L94.8388 185.062L94.2648 185.888L93.3408 186.602L92.5708 185.664L95.2728 183.032H96.2528V191.516H97.8208V193H93.0608V191.516Z" fill="white"/>
<path d="M210.272 172.712C210.729 172.712 211.074 172.558 211.308 172.25C211.55 171.942 211.672 171.55 211.672 171.074C211.672 170.019 211.149 169.492 210.104 169.492H209.278V168.54L210.664 166.188L211.336 165.558L210.412 165.684H208.494V164.2H212.974V165.194L211.35 167.84L210.832 168.218V168.288L211.35 168.204C211.611 168.223 211.863 168.293 212.106 168.414C212.348 168.535 212.558 168.708 212.736 168.932C212.922 169.156 213.067 169.436 213.17 169.772C213.282 170.108 213.338 170.505 213.338 170.962C213.338 171.513 213.258 171.989 213.1 172.39C212.95 172.791 212.74 173.127 212.47 173.398C212.208 173.669 211.896 173.869 211.532 174C211.177 174.131 210.794 174.196 210.384 174.196C210.038 174.196 209.674 174.159 209.292 174.084C208.909 174.009 208.606 173.902 208.382 173.762L208.83 172.362C209.026 172.465 209.24 172.549 209.474 172.614C209.707 172.679 209.973 172.712 210.272 172.712ZM215.389 174L218.035 166.342L218.539 165.656L217.839 165.796H214.885V164.2H220.191V164.732L217.013 174H215.389ZM223.643 172.712C224.1 172.712 224.445 172.558 224.679 172.25C224.921 171.942 225.043 171.55 225.043 171.074C225.043 170.019 224.52 169.492 223.475 169.492H222.649V168.54L224.035 166.188L224.707 165.558L223.783 165.684H221.865V164.2H226.345V165.194L224.721 167.84L224.203 168.218V168.288L224.721 168.204C224.982 168.223 225.234 168.293 225.477 168.414C225.719 168.535 225.929 168.708 226.107 168.932C226.293 169.156 226.438 169.436 226.541 169.772C226.653 170.108 226.709 170.505 226.709 170.962C226.709 171.513 226.629 171.989 226.471 172.39C226.321 172.791 226.111 173.127 225.841 173.398C225.579 173.669 225.267 173.869 224.903 174C224.548 174.131 224.165 174.196 223.755 174.196C223.409 174.196 223.045 174.159 222.663 174.084C222.28 174.009 221.977 173.902 221.753 173.762L222.201 172.362C222.397 172.465 222.611 172.549 222.845 172.614C223.078 172.679 223.344 172.712 223.643 172.712Z" fill="white"/>
<path d="M319.272 148.712C319.729 148.712 320.074 148.558 320.308 148.25C320.55 147.942 320.672 147.55 320.672 147.074C320.672 146.019 320.149 145.492 319.104 145.492H318.278V144.54L319.664 142.188L320.336 141.558L319.412 141.684H317.494V140.2H321.974V141.194L320.35 143.84L319.832 144.218V144.288L320.35 144.204C320.611 144.223 320.863 144.293 321.106 144.414C321.348 144.535 321.558 144.708 321.736 144.932C321.922 145.156 322.067 145.436 322.17 145.772C322.282 146.108 322.338 146.505 322.338 146.962C322.338 147.513 322.258 147.989 322.1 148.39C321.95 148.791 321.74 149.127 321.47 149.398C321.208 149.669 320.896 149.869 320.532 150C320.177 150.131 319.794 150.196 319.384 150.196C319.038 150.196 318.674 150.159 318.292 150.084C317.909 150.009 317.606 149.902 317.382 149.762L317.83 148.362C318.026 148.465 318.24 148.549 318.474 148.614C318.707 148.679 318.973 148.712 319.272 148.712ZM323.857 147.648C323.857 147.312 323.895 147.013 323.969 146.752C324.044 146.481 324.147 146.243 324.277 146.038C324.408 145.823 324.553 145.632 324.711 145.464C324.879 145.296 325.057 145.142 325.243 145.002C324.879 144.713 324.59 144.381 324.375 144.008C324.17 143.625 324.067 143.154 324.067 142.594C324.067 141.801 324.287 141.171 324.725 140.704C325.173 140.237 325.785 140.004 326.559 140.004C327.269 140.004 327.843 140.209 328.281 140.62C328.72 141.031 328.939 141.614 328.939 142.37C328.939 142.921 328.837 143.387 328.631 143.77C328.426 144.153 328.132 144.507 327.749 144.834C328.216 145.161 328.566 145.529 328.799 145.94C329.033 146.351 329.149 146.869 329.149 147.494C329.149 147.914 329.079 148.292 328.939 148.628C328.809 148.964 328.622 149.249 328.379 149.482C328.146 149.715 327.866 149.893 327.539 150.014C327.213 150.135 326.858 150.196 326.475 150.196C326.083 150.196 325.729 150.135 325.411 150.014C325.094 149.902 324.819 149.739 324.585 149.524C324.352 149.309 324.17 149.043 324.039 148.726C323.918 148.409 323.857 148.049 323.857 147.648ZM327.539 147.494C327.539 147.261 327.502 147.051 327.427 146.864C327.353 146.677 327.25 146.514 327.119 146.374C326.998 146.225 326.858 146.089 326.699 145.968C326.55 145.847 326.401 145.73 326.251 145.618C325.925 145.87 325.696 146.145 325.565 146.444C325.444 146.733 325.383 147.027 325.383 147.326C325.383 147.718 325.481 148.049 325.677 148.32C325.873 148.581 326.149 148.712 326.503 148.712C326.821 148.712 327.073 148.614 327.259 148.418C327.446 148.213 327.539 147.905 327.539 147.494ZM325.663 142.622C325.663 142.837 325.691 143.028 325.747 143.196C325.813 143.355 325.897 143.499 325.999 143.63C326.102 143.761 326.219 143.882 326.349 143.994C326.489 144.097 326.634 144.195 326.783 144.288C326.998 144.036 327.157 143.789 327.259 143.546C327.371 143.294 327.427 143.009 327.427 142.692C327.427 142.309 327.339 142.015 327.161 141.81C326.993 141.595 326.788 141.488 326.545 141.488C326.237 141.488 326.013 141.605 325.873 141.838C325.733 142.062 325.663 142.323 325.663 142.622ZM336.353 147.27H335.121V150H333.539V147.27H330.081V146.234L333.665 140.13H335.121V145.842H336.353V147.27ZM333.539 143.672L333.693 142.412H333.637L333.217 143.546L332.111 145.422L331.551 145.954L332.265 145.842H333.539V143.672Z" fill="white"/>
<path d="M404.272 135.712C404.729 135.712 405.074 135.558 405.308 135.25C405.55 134.942 405.672 134.55 405.672 134.074C405.672 133.019 405.149 132.492 404.104 132.492H403.278V131.54L404.664 129.188L405.336 128.558L404.412 128.684H402.494V127.2H406.974V128.194L405.35 130.84L404.832 131.218V131.288L405.35 131.204C405.611 131.223 405.863 131.293 406.106 131.414C406.348 131.535 406.558 131.708 406.736 131.932C406.922 132.156 407.067 132.436 407.17 132.772C407.282 133.108 407.338 133.505 407.338 133.962C407.338 134.513 407.258 134.989 407.1 135.39C406.95 135.791 406.74 136.127 406.47 136.398C406.208 136.669 405.896 136.869 405.532 137C405.177 137.131 404.794 137.196 404.384 137.196C404.038 137.196 403.674 137.159 403.292 137.084C402.909 137.009 402.606 136.902 402.382 136.762L402.83 135.362C403.026 135.465 403.24 135.549 403.474 135.614C403.707 135.679 403.973 135.712 404.272 135.712ZM408.857 134.648C408.857 134.312 408.895 134.013 408.969 133.752C409.044 133.481 409.147 133.243 409.277 133.038C409.408 132.823 409.553 132.632 409.711 132.464C409.879 132.296 410.057 132.142 410.243 132.002C409.879 131.713 409.59 131.381 409.375 131.008C409.17 130.625 409.067 130.154 409.067 129.594C409.067 128.801 409.287 128.171 409.725 127.704C410.173 127.237 410.785 127.004 411.559 127.004C412.269 127.004 412.843 127.209 413.281 127.62C413.72 128.031 413.939 128.614 413.939 129.37C413.939 129.921 413.837 130.387 413.631 130.77C413.426 131.153 413.132 131.507 412.749 131.834C413.216 132.161 413.566 132.529 413.799 132.94C414.033 133.351 414.149 133.869 414.149 134.494C414.149 134.914 414.079 135.292 413.939 135.628C413.809 135.964 413.622 136.249 413.379 136.482C413.146 136.715 412.866 136.893 412.539 137.014C412.213 137.135 411.858 137.196 411.475 137.196C411.083 137.196 410.729 137.135 410.411 137.014C410.094 136.902 409.819 136.739 409.585 136.524C409.352 136.309 409.17 136.043 409.039 135.726C408.918 135.409 408.857 135.049 408.857 134.648ZM412.539 134.494C412.539 134.261 412.502 134.051 412.427 133.864C412.353 133.677 412.25 133.514 412.119 133.374C411.998 133.225 411.858 133.089 411.699 132.968C411.55 132.847 411.401 132.73 411.251 132.618C410.925 132.87 410.696 133.145 410.565 133.444C410.444 133.733 410.383 134.027 410.383 134.326C410.383 134.718 410.481 135.049 410.677 135.32C410.873 135.581 411.149 135.712 411.503 135.712C411.821 135.712 412.073 135.614 412.259 135.418C412.446 135.213 412.539 134.905 412.539 134.494ZM410.663 129.622C410.663 129.837 410.691 130.028 410.747 130.196C410.813 130.355 410.897 130.499 410.999 130.63C411.102 130.761 411.219 130.882 411.349 130.994C411.489 131.097 411.634 131.195 411.783 131.288C411.998 131.036 412.157 130.789 412.259 130.546C412.371 130.294 412.427 130.009 412.427 129.692C412.427 129.309 412.339 129.015 412.161 128.81C411.993 128.595 411.788 128.488 411.545 128.488C411.237 128.488 411.013 128.605 410.873 128.838C410.733 129.062 410.663 129.323 410.663 129.622ZM417.643 135.712C418.1 135.712 418.445 135.558 418.679 135.25C418.921 134.942 419.043 134.55 419.043 134.074C419.043 133.019 418.52 132.492 417.475 132.492H416.649V131.54L418.035 129.188L418.707 128.558L417.783 128.684H415.865V127.2H420.345V128.194L418.721 130.84L418.203 131.218V131.288L418.721 131.204C418.982 131.223 419.234 131.293 419.477 131.414C419.719 131.535 419.929 131.708 420.107 131.932C420.293 132.156 420.438 132.436 420.541 132.772C420.653 133.108 420.709 133.505 420.709 133.962C420.709 134.513 420.629 134.989 420.471 135.39C420.321 135.791 420.111 136.127 419.841 136.398C419.579 136.669 419.267 136.869 418.903 137C418.548 137.131 418.165 137.196 417.755 137.196C417.409 137.196 417.045 137.159 416.663 137.084C416.28 137.009 415.977 136.902 415.753 136.762L416.201 135.362C416.397 135.465 416.611 135.549 416.845 135.614C417.078 135.679 417.344 135.712 417.643 135.712Z" fill="white"/>
<path d="M501.982 118.27H500.75V121H499.168V118.27H495.71V117.234L499.294 111.13H500.75V116.842H501.982V118.27ZM499.168 114.672L499.322 113.412H499.266L498.846 114.546L497.74 116.422L497.18 116.954L497.894 116.842H499.168V114.672ZM507.785 113.552C507.785 114.037 507.715 114.537 507.575 115.05C507.435 115.554 507.253 116.049 507.029 116.534C506.815 117.019 506.577 117.481 506.315 117.92C506.054 118.359 505.797 118.746 505.545 119.082L504.929 119.656V119.726L505.769 119.516H507.939V121H503.025V120.034C503.221 119.791 503.431 119.516 503.655 119.208C503.889 118.891 504.117 118.559 504.341 118.214C504.575 117.859 504.799 117.495 505.013 117.122C505.228 116.739 505.415 116.361 505.573 115.988C505.741 115.605 505.872 115.232 505.965 114.868C506.068 114.504 506.11 114.163 506.091 113.846C506.11 113.454 506.026 113.137 505.839 112.894C505.653 112.651 505.359 112.53 504.957 112.53C504.724 112.53 504.486 112.586 504.243 112.698C504.001 112.801 503.795 112.927 503.627 113.076L502.983 111.858C503.291 111.597 503.641 111.391 504.033 111.242C504.425 111.083 504.887 111.004 505.419 111.004C505.755 111.004 506.068 111.06 506.357 111.172C506.647 111.275 506.894 111.433 507.099 111.648C507.314 111.863 507.482 112.129 507.603 112.446C507.725 112.763 507.785 113.132 507.785 113.552ZM509.361 114.266C509.361 113.277 509.594 112.488 510.061 111.9C510.537 111.303 511.218 111.004 512.105 111.004C512.973 111.004 513.663 111.312 514.177 111.928C514.699 112.544 514.961 113.468 514.961 114.7C514.961 115.783 514.844 116.721 514.611 117.514C514.377 118.298 514.065 118.951 513.673 119.474C513.281 119.997 512.828 120.398 512.315 120.678C511.801 120.958 511.269 121.131 510.719 121.196L510.327 119.796C511.167 119.628 511.82 119.264 512.287 118.704C512.753 118.135 513.052 117.449 513.183 116.646C513.005 116.879 512.814 117.043 512.609 117.136C512.403 117.229 512.137 117.276 511.811 117.276C511.521 117.276 511.227 117.22 510.929 117.108C510.639 116.987 510.378 116.805 510.145 116.562C509.911 116.31 509.72 115.997 509.571 115.624C509.431 115.241 509.361 114.789 509.361 114.266ZM510.971 114.168C510.971 114.7 511.083 115.106 511.307 115.386C511.54 115.657 511.834 115.792 512.189 115.792C512.459 115.792 512.688 115.745 512.875 115.652C513.061 115.549 513.206 115.409 513.309 115.232C513.327 115.129 513.337 115.022 513.337 114.91C513.346 114.798 513.351 114.691 513.351 114.588C513.351 114.299 513.327 114.028 513.281 113.776C513.234 113.515 513.159 113.291 513.057 113.104C512.954 112.917 512.823 112.768 512.665 112.656C512.506 112.544 512.315 112.488 512.091 112.488C511.736 112.488 511.461 112.637 511.265 112.936C511.069 113.235 510.971 113.645 510.971 114.168Z" fill="white"/>
</g>
<path d="M74.04 225.36C74.04 226.053 73.94 226.767 73.74 227.5C73.54 228.22 73.28 228.927 72.96 229.62C72.6533 230.313 72.3133 230.973 71.94 231.6C71.5667 232.227 71.2 232.78 70.84 233.26L69.96 234.08V234.18L71.16 233.88H74.26V236H67.24V234.62C67.52 234.273 67.82 233.88 68.14 233.44C68.4733 232.987 68.8 232.513 69.12 232.02C69.4533 231.513 69.7733 230.993 70.08 230.46C70.3867 229.913 70.6533 229.373 70.88 228.84C71.12 228.293 71.3067 227.76 71.44 227.24C71.5867 226.72 71.6467 226.233 71.62 225.78C71.6467 225.22 71.5267 224.767 71.26 224.42C70.9933 224.073 70.5733 223.9 70 223.9C69.6667 223.9 69.3267 223.98 68.98 224.14C68.6333 224.287 68.34 224.467 68.1 224.68L67.18 222.94C67.62 222.567 68.12 222.273 68.68 222.06C69.24 221.833 69.9 221.72 70.66 221.72C71.14 221.72 71.5867 221.8 72 221.96C72.4133 222.107 72.7667 222.333 73.06 222.64C73.3667 222.947 73.6067 223.327 73.78 223.78C73.9533 224.233 74.04 224.76 74.04 225.36ZM76.2508 228.98C76.2508 227.673 76.3374 226.56 76.5108 225.64C76.6974 224.72 76.9641 223.973 77.3108 223.4C77.6574 222.813 78.0841 222.387 78.5908 222.12C79.0974 221.853 79.6774 221.72 80.3308 221.72C81.0241 221.72 81.6241 221.853 82.1308 222.12C82.6508 222.387 83.0774 222.813 83.4108 223.4C83.7574 223.973 84.0108 224.72 84.1708 225.64C84.3441 226.56 84.4308 227.673 84.4308 228.98C84.4308 230.3 84.3374 231.427 84.1508 232.36C83.9641 233.28 83.6974 234.033 83.3508 234.62C83.0041 235.193 82.5774 235.613 82.0708 235.88C81.5641 236.147 80.9841 236.28 80.3308 236.28C79.6374 236.28 79.0308 236.147 78.5108 235.88C78.0041 235.6 77.5841 235.167 77.2508 234.58C76.9174 233.98 76.6641 233.22 76.4908 232.3C76.3308 231.38 76.2508 230.273 76.2508 228.98ZM78.6308 228.98C78.6308 230.767 78.7641 232.08 79.0308 232.92C79.2974 233.747 79.7374 234.16 80.3508 234.16C80.6441 234.16 80.8974 234.067 81.1108 233.88C81.3374 233.693 81.5174 233.393 81.6508 232.98C81.7841 232.567 81.8841 232.033 81.9508 231.38C82.0174 230.727 82.0508 229.927 82.0508 228.98C82.0508 227.207 81.9174 225.907 81.6508 225.08C81.3974 224.253 80.9574 223.84 80.3308 223.84C80.0241 223.84 79.7641 223.933 79.5508 224.12C79.3374 224.307 79.1641 224.607 79.0308 225.02C78.8974 225.433 78.7974 225.967 78.7308 226.62C78.6641 227.273 78.6308 228.06 78.6308 228.98ZM86.8416 233.88H89.1216V226.02L89.3816 224.66L88.5616 225.84L87.2416 226.86L86.1416 225.52L90.0016 221.76H91.4016V233.88H93.6416V236H86.8416V233.88ZM96.4123 236L100.192 225.06L100.912 224.08L99.9123 224.28H95.6923V222H103.272V222.76L98.7323 236H96.4123ZM205.7 225.36C205.7 226.053 205.6 226.767 205.4 227.5C205.2 228.22 204.94 228.927 204.62 229.62C204.313 230.313 203.973 230.973 203.6 231.6C203.227 232.227 202.86 232.78 202.5 233.26L201.62 234.08V234.18L202.82 233.88H205.92V236H198.9V234.62C199.18 234.273 199.48 233.88 199.8 233.44C200.133 232.987 200.46 232.513 200.78 232.02C201.113 231.513 201.433 230.993 201.74 230.46C202.047 229.913 202.313 229.373 202.54 228.84C202.78 228.293 202.967 227.76 203.1 227.24C203.247 226.72 203.307 226.233 203.28 225.78C203.307 225.22 203.187 224.767 202.92 224.42C202.653 224.073 202.233 223.9 201.66 223.9C201.327 223.9 200.987 223.98 200.64 224.14C200.293 224.287 200 224.467 199.76 224.68L198.84 222.94C199.28 222.567 199.78 222.273 200.34 222.06C200.9 221.833 201.56 221.72 202.32 221.72C202.8 221.72 203.247 221.8 203.66 221.96C204.073 222.107 204.427 222.333 204.72 222.64C205.027 222.947 205.267 223.327 205.44 223.78C205.613 224.233 205.7 224.76 205.7 225.36ZM207.911 228.98C207.911 227.673 207.998 226.56 208.171 225.64C208.358 224.72 208.624 223.973 208.971 223.4C209.318 222.813 209.744 222.387 210.251 222.12C210.758 221.853 211.338 221.72 211.991 221.72C212.684 221.72 213.284 221.853 213.791 222.12C214.311 222.387 214.738 222.813 215.071 223.4C215.418 223.973 215.671 224.72 215.831 225.64C216.004 226.56 216.091 227.673 216.091 228.98C216.091 230.3 215.998 231.427 215.811 232.36C215.624 233.28 215.358 234.033 215.011 234.62C214.664 235.193 214.238 235.613 213.731 235.88C213.224 236.147 212.644 236.28 211.991 236.28C211.298 236.28 210.691 236.147 210.171 235.88C209.664 235.6 209.244 235.167 208.911 234.58C208.578 233.98 208.324 233.22 208.151 232.3C207.991 231.38 207.911 230.273 207.911 228.98ZM210.291 228.98C210.291 230.767 210.424 232.08 210.691 232.92C210.958 233.747 211.398 234.16 212.011 234.16C212.304 234.16 212.558 234.067 212.771 233.88C212.998 233.693 213.178 233.393 213.311 232.98C213.444 232.567 213.544 232.033 213.611 231.38C213.678 230.727 213.711 229.927 213.711 228.98C213.711 227.207 213.578 225.907 213.311 225.08C213.058 224.253 212.618 223.84 211.991 223.84C211.684 223.84 211.424 223.933 211.211 224.12C210.998 224.307 210.824 224.607 210.691 225.02C210.558 225.433 210.458 225.967 210.391 226.62C210.324 227.273 210.291 228.06 210.291 228.98ZM218.502 233.88H220.782V226.02L221.042 224.66L220.222 225.84L218.902 226.86L217.802 225.52L221.662 221.76H223.062V233.88H225.302V236H218.502V233.88ZM227.313 232.64C227.313 232.16 227.366 231.733 227.473 231.36C227.579 230.973 227.726 230.633 227.913 230.34C228.099 230.033 228.306 229.76 228.533 229.52C228.773 229.28 229.026 229.06 229.293 228.86C228.773 228.447 228.359 227.973 228.053 227.44C227.759 226.893 227.613 226.22 227.613 225.42C227.613 224.287 227.926 223.387 228.553 222.72C229.193 222.053 230.066 221.72 231.173 221.72C232.186 221.72 233.006 222.013 233.633 222.6C234.259 223.187 234.573 224.02 234.573 225.1C234.573 225.887 234.426 226.553 234.133 227.1C233.839 227.647 233.419 228.153 232.873 228.62C233.539 229.087 234.039 229.613 234.373 230.2C234.706 230.787 234.873 231.527 234.873 232.42C234.873 233.02 234.773 233.56 234.573 234.04C234.386 234.52 234.119 234.927 233.773 235.26C233.439 235.593 233.039 235.847 232.573 236.02C232.106 236.193 231.599 236.28 231.053 236.28C230.493 236.28 229.986 236.193 229.533 236.02C229.079 235.86 228.686 235.627 228.353 235.32C228.019 235.013 227.759 234.633 227.573 234.18C227.399 233.727 227.313 233.213 227.313 232.64ZM232.573 232.42C232.573 232.087 232.519 231.787 232.413 231.52C232.306 231.253 232.159 231.02 231.973 230.82C231.799 230.607 231.599 230.413 231.373 230.24C231.159 230.067 230.946 229.9 230.733 229.74C230.266 230.1 229.939 230.493 229.753 230.92C229.579 231.333 229.493 231.753 229.493 232.18C229.493 232.74 229.633 233.213 229.913 233.6C230.193 233.973 230.586 234.16 231.093 234.16C231.546 234.16 231.906 234.02 232.173 233.74C232.439 233.447 232.573 233.007 232.573 232.42ZM229.893 225.46C229.893 225.767 229.933 226.04 230.013 226.28C230.106 226.507 230.226 226.713 230.373 226.9C230.519 227.087 230.686 227.26 230.873 227.42C231.073 227.567 231.279 227.707 231.493 227.84C231.799 227.48 232.026 227.127 232.173 226.78C232.333 226.42 232.413 226.013 232.413 225.56C232.413 225.013 232.286 224.593 232.033 224.3C231.793 223.993 231.499 223.84 231.153 223.84C230.713 223.84 230.393 224.007 230.193 224.34C229.993 224.66 229.893 225.033 229.893 225.46ZM313.63 225.36C313.63 226.053 313.53 226.767 313.33 227.5C313.13 228.22 312.87 228.927 312.55 229.62C312.243 230.313 311.903 230.973 311.53 231.6C311.157 232.227 310.79 232.78 310.43 233.26L309.55 234.08V234.18L310.75 233.88H313.85V236H306.83V234.62C307.11 234.273 307.41 233.88 307.73 233.44C308.063 232.987 308.39 232.513 308.71 232.02C309.043 231.513 309.363 230.993 309.67 230.46C309.977 229.913 310.243 229.373 310.47 228.84C310.71 228.293 310.897 227.76 311.03 227.24C311.177 226.72 311.237 226.233 311.21 225.78C311.237 225.22 311.117 224.767 310.85 224.42C310.583 224.073 310.163 223.9 309.59 223.9C309.257 223.9 308.917 223.98 308.57 224.14C308.223 224.287 307.93 224.467 307.69 224.68L306.77 222.94C307.21 222.567 307.71 222.273 308.27 222.06C308.83 221.833 309.49 221.72 310.25 221.72C310.73 221.72 311.177 221.8 311.59 221.96C312.003 222.107 312.357 222.333 312.65 222.64C312.957 222.947 313.197 223.327 313.37 223.78C313.543 224.233 313.63 224.76 313.63 225.36ZM315.841 228.98C315.841 227.673 315.927 226.56 316.101 225.64C316.287 224.72 316.554 223.973 316.901 223.4C317.247 222.813 317.674 222.387 318.181 222.12C318.687 221.853 319.267 221.72 319.921 221.72C320.614 221.72 321.214 221.853 321.721 222.12C322.241 222.387 322.667 222.813 323.001 223.4C323.347 223.973 323.601 224.72 323.761 225.64C323.934 226.56 324.021 227.673 324.021 228.98C324.021 230.3 323.927 231.427 323.741 232.36C323.554 233.28 323.287 234.033 322.941 234.62C322.594 235.193 322.167 235.613 321.661 235.88C321.154 236.147 320.574 236.28 319.921 236.28C319.227 236.28 318.621 236.147 318.101 235.88C317.594 235.6 317.174 235.167 316.841 234.58C316.507 233.98 316.254 233.22 316.081 232.3C315.921 231.38 315.841 230.273 315.841 228.98ZM318.221 228.98C318.221 230.767 318.354 232.08 318.621 232.92C318.887 233.747 319.327 234.16 319.941 234.16C320.234 234.16 320.487 234.067 320.701 233.88C320.927 233.693 321.107 233.393 321.241 232.98C321.374 232.567 321.474 232.033 321.541 231.38C321.607 230.727 321.641 229.927 321.641 228.98C321.641 227.207 321.507 225.907 321.241 225.08C320.987 224.253 320.547 223.84 319.921 223.84C319.614 223.84 319.354 223.933 319.141 224.12C318.927 224.307 318.754 224.607 318.621 225.02C318.487 225.433 318.387 225.967 318.321 226.62C318.254 227.273 318.221 228.06 318.221 228.98ZM326.431 233.88H328.711V226.02L328.971 224.66L328.151 225.84L326.831 226.86L325.731 225.52L329.591 221.76H330.991V233.88H333.231V236H326.431V233.88ZM334.982 226.38C334.982 224.967 335.316 223.84 335.982 223C336.662 222.147 337.636 221.72 338.902 221.72C340.142 221.72 341.129 222.16 341.862 223.04C342.609 223.92 342.982 225.24 342.982 227C342.982 228.547 342.816 229.887 342.482 231.02C342.149 232.14 341.702 233.073 341.142 233.82C340.582 234.567 339.936 235.14 339.202 235.54C338.469 235.94 337.709 236.187 336.922 236.28L336.362 234.28C337.562 234.04 338.496 233.52 339.162 232.72C339.829 231.907 340.256 230.927 340.442 229.78C340.189 230.113 339.916 230.347 339.622 230.48C339.329 230.613 338.949 230.68 338.482 230.68C338.069 230.68 337.649 230.6 337.222 230.44C336.809 230.267 336.436 230.007 336.102 229.66C335.769 229.3 335.496 228.853 335.282 228.32C335.082 227.773 334.982 227.127 334.982 226.38ZM337.282 226.24C337.282 227 337.442 227.58 337.762 227.98C338.096 228.367 338.516 228.56 339.022 228.56C339.409 228.56 339.736 228.493 340.002 228.36C340.269 228.213 340.476 228.013 340.622 227.76C340.649 227.613 340.662 227.46 340.662 227.3C340.676 227.14 340.682 226.987 340.682 226.84C340.682 226.427 340.649 226.04 340.582 225.68C340.516 225.307 340.409 224.987 340.262 224.72C340.116 224.453 339.929 224.24 339.702 224.08C339.476 223.92 339.202 223.84 338.882 223.84C338.376 223.84 337.982 224.053 337.702 224.48C337.422 224.907 337.282 225.493 337.282 226.24ZM396.95 225.36C396.95 226.053 396.85 226.767 396.65 227.5C396.45 228.22 396.19 228.927 395.87 229.62C395.563 230.313 395.223 230.973 394.85 231.6C394.477 232.227 394.11 232.78 393.75 233.26L392.87 234.08V234.18L394.07 233.88H397.17V236H390.15V234.62C390.43 234.273 390.73 233.88 391.05 233.44C391.383 232.987 391.71 232.513 392.03 232.02C392.363 231.513 392.683 230.993 392.99 230.46C393.297 229.913 393.563 229.373 393.79 228.84C394.03 228.293 394.217 227.76 394.35 227.24C394.497 226.72 394.557 226.233 394.53 225.78C394.557 225.22 394.437 224.767 394.17 224.42C393.903 224.073 393.483 223.9 392.91 223.9C392.577 223.9 392.237 223.98 391.89 224.14C391.543 224.287 391.25 224.467 391.01 224.68L390.09 222.94C390.53 222.567 391.03 222.273 391.59 222.06C392.15 221.833 392.81 221.72 393.57 221.72C394.05 221.72 394.497 221.8 394.91 221.96C395.323 222.107 395.677 222.333 395.97 222.64C396.277 222.947 396.517 223.327 396.69 223.78C396.863 224.233 396.95 224.76 396.95 225.36ZM399.161 228.98C399.161 227.673 399.248 226.56 399.421 225.64C399.608 224.72 399.874 223.973 400.221 223.4C400.568 222.813 400.994 222.387 401.501 222.12C402.008 221.853 402.588 221.72 403.241 221.72C403.934 221.72 404.534 221.853 405.041 222.12C405.561 222.387 405.988 222.813 406.321 223.4C406.668 223.973 406.921 224.72 407.081 225.64C407.254 226.56 407.341 227.673 407.341 228.98C407.341 230.3 407.248 231.427 407.061 232.36C406.874 233.28 406.608 234.033 406.261 234.62C405.914 235.193 405.488 235.613 404.981 235.88C404.474 236.147 403.894 236.28 403.241 236.28C402.548 236.28 401.941 236.147 401.421 235.88C400.914 235.6 400.494 235.167 400.161 234.58C399.828 233.98 399.574 233.22 399.401 232.3C399.241 231.38 399.161 230.273 399.161 228.98ZM401.541 228.98C401.541 230.767 401.674 232.08 401.941 232.92C402.208 233.747 402.648 234.16 403.261 234.16C403.554 234.16 403.808 234.067 404.021 233.88C404.248 233.693 404.428 233.393 404.561 232.98C404.694 232.567 404.794 232.033 404.861 231.38C404.928 230.727 404.961 229.927 404.961 228.98C404.961 227.207 404.828 225.907 404.561 225.08C404.308 224.253 403.868 223.84 403.241 223.84C402.934 223.84 402.674 223.933 402.461 224.12C402.248 224.307 402.074 224.607 401.941 225.02C401.808 225.433 401.708 225.967 401.641 226.62C401.574 227.273 401.541 228.06 401.541 228.98ZM416.052 225.36C416.052 226.053 415.952 226.767 415.752 227.5C415.552 228.22 415.292 228.927 414.972 229.62C414.665 230.313 414.325 230.973 413.952 231.6C413.578 232.227 413.212 232.78 412.852 233.26L411.972 234.08V234.18L413.172 233.88H416.272V236H409.252V234.62C409.532 234.273 409.832 233.88 410.152 233.44C410.485 232.987 410.812 232.513 411.132 232.02C411.465 231.513 411.785 230.993 412.092 230.46C412.398 229.913 412.665 229.373 412.892 228.84C413.132 228.293 413.318 227.76 413.452 227.24C413.598 226.72 413.658 226.233 413.632 225.78C413.658 225.22 413.538 224.767 413.272 224.42C413.005 224.073 412.585 223.9 412.012 223.9C411.678 223.9 411.338 223.98 410.992 224.14C410.645 224.287 410.352 224.467 410.112 224.68L409.192 222.94C409.632 222.567 410.132 222.273 410.692 222.06C411.252 221.833 411.912 221.72 412.672 221.72C413.152 221.72 413.598 221.8 414.012 221.96C414.425 222.107 414.778 222.333 415.072 222.64C415.378 222.947 415.618 223.327 415.792 223.78C415.965 224.233 416.052 224.76 416.052 225.36ZM418.263 228.98C418.263 227.673 418.349 226.56 418.523 225.64C418.709 224.72 418.976 223.973 419.323 223.4C419.669 222.813 420.096 222.387 420.603 222.12C421.109 221.853 421.689 221.72 422.343 221.72C423.036 221.72 423.636 221.853 424.143 222.12C424.663 222.387 425.089 222.813 425.423 223.4C425.769 223.973 426.023 224.72 426.183 225.64C426.356 226.56 426.443 227.673 426.443 228.98C426.443 230.3 426.349 231.427 426.163 232.36C425.976 233.28 425.709 234.033 425.363 234.62C425.016 235.193 424.589 235.613 424.083 235.88C423.576 236.147 422.996 236.28 422.343 236.28C421.649 236.28 421.043 236.147 420.523 235.88C420.016 235.6 419.596 235.167 419.263 234.58C418.929 233.98 418.676 233.22 418.503 232.3C418.343 231.38 418.263 230.273 418.263 228.98ZM420.643 228.98C420.643 230.767 420.776 232.08 421.043 232.92C421.309 233.747 421.749 234.16 422.363 234.16C422.656 234.16 422.909 234.067 423.123 233.88C423.349 233.693 423.529 233.393 423.663 232.98C423.796 232.567 423.896 232.033 423.963 231.38C424.029 230.727 424.063 229.927 424.063 228.98C424.063 227.207 423.929 225.907 423.663 225.08C423.409 224.253 422.969 223.84 422.343 223.84C422.036 223.84 421.776 223.933 421.563 224.12C421.349 224.307 421.176 224.607 421.043 225.02C420.909 225.433 420.809 225.967 420.743 226.62C420.676 227.273 420.643 228.06 420.643 228.98ZM496.677 225.36C496.677 226.053 496.577 226.767 496.377 227.5C496.177 228.22 495.917 228.927 495.597 229.62C495.29 230.313 494.95 230.973 494.577 231.6C494.203 232.227 493.837 232.78 493.477 233.26L492.597 234.08V234.18L493.797 233.88H496.897V236H489.877V234.62C490.157 234.273 490.457 233.88 490.777 233.44C491.11 232.987 491.437 232.513 491.757 232.02C492.09 231.513 492.41 230.993 492.717 230.46C493.023 229.913 493.29 229.373 493.517 228.84C493.757 228.293 493.943 227.76 494.077 227.24C494.223 226.72 494.283 226.233 494.257 225.78C494.283 225.22 494.163 224.767 493.897 224.42C493.63 224.073 493.21 223.9 492.637 223.9C492.303 223.9 491.963 223.98 491.617 224.14C491.27 224.287 490.977 224.467 490.737 224.68L489.817 222.94C490.257 222.567 490.757 222.273 491.317 222.06C491.877 221.833 492.537 221.72 493.297 221.72C493.777 221.72 494.223 221.8 494.637 221.96C495.05 222.107 495.403 222.333 495.697 222.64C496.003 222.947 496.243 223.327 496.417 223.78C496.59 224.233 496.677 224.76 496.677 225.36ZM498.888 228.98C498.888 227.673 498.974 226.56 499.148 225.64C499.334 224.72 499.601 223.973 499.948 223.4C500.294 222.813 500.721 222.387 501.228 222.12C501.734 221.853 502.314 221.72 502.968 221.72C503.661 221.72 504.261 221.853 504.768 222.12C505.288 222.387 505.714 222.813 506.048 223.4C506.394 223.973 506.648 224.72 506.808 225.64C506.981 226.56 507.068 227.673 507.068 228.98C507.068 230.3 506.974 231.427 506.788 232.36C506.601 233.28 506.334 234.033 505.988 234.62C505.641 235.193 505.214 235.613 504.708 235.88C504.201 236.147 503.621 236.28 502.968 236.28C502.274 236.28 501.668 236.147 501.148 235.88C500.641 235.6 500.221 235.167 499.888 234.58C499.554 233.98 499.301 233.22 499.128 232.3C498.968 231.38 498.888 230.273 498.888 228.98ZM501.268 228.98C501.268 230.767 501.401 232.08 501.668 232.92C501.934 233.747 502.374 234.16 502.988 234.16C503.281 234.16 503.534 234.067 503.748 233.88C503.974 233.693 504.154 233.393 504.288 232.98C504.421 232.567 504.521 232.033 504.588 231.38C504.654 230.727 504.688 229.927 504.688 228.98C504.688 227.207 504.554 225.907 504.288 225.08C504.034 224.253 503.594 223.84 502.968 223.84C502.661 223.84 502.401 223.933 502.188 224.12C501.974 224.307 501.801 224.607 501.668 225.02C501.534 225.433 501.434 225.967 501.368 226.62C501.301 227.273 501.268 228.06 501.268 228.98ZM515.778 225.36C515.778 226.053 515.678 226.767 515.478 227.5C515.278 228.22 515.018 228.927 514.698 229.62C514.392 230.313 514.052 230.973 513.678 231.6C513.305 232.227 512.938 232.78 512.578 233.26L511.698 234.08V234.18L512.898 233.88H515.998V236H508.978V234.62C509.258 234.273 509.558 233.88 509.878 233.44C510.212 232.987 510.538 232.513 510.858 232.02C511.192 231.513 511.512 230.993 511.818 230.46C512.125 229.913 512.392 229.373 512.618 228.84C512.858 228.293 513.045 227.76 513.178 227.24C513.325 226.72 513.385 226.233 513.358 225.78C513.385 225.22 513.265 224.767 512.998 224.42C512.732 224.073 512.312 223.9 511.738 223.9C511.405 223.9 511.065 223.98 510.718 224.14C510.372 224.287 510.078 224.467 509.838 224.68L508.918 222.94C509.358 222.567 509.858 222.273 510.418 222.06C510.978 221.833 511.638 221.72 512.398 221.72C512.878 221.72 513.325 221.8 513.738 221.96C514.152 222.107 514.505 222.333 514.798 222.64C515.105 222.947 515.345 223.327 515.518 223.78C515.692 224.233 515.778 224.76 515.778 225.36ZM519.029 233.88H521.309V226.02L521.569 224.66L520.749 225.84L519.429 226.86L518.329 225.52L522.189 221.76H523.589V233.88H525.829V236H519.029V233.88Z" fill="#E85323"/>
<defs>
<clipPath id="clip0_300_2">
<rect width="572.787" height="205.221" fill="white"/>
</clipPath>
</defs>
</svg>
