<svg width="324" height="292" viewBox="0 0 324 292" fill="none" xmlns="http://www.w3.org/2000/svg">
<path d="M39.7387 84.4993L39.0922 88.3535L37.5294 91.6386L39.8752 93.8275L43.1567 93.9869L57.6865 110.721L61.124 104.466L69.0907 106.968L75.9657 102.43L69.0907 96.4881L69.7145 93.3591L60.9648 86.9452L59.246 88.978L51.7505 86.6329L49.2487 83.5073L35.8106 84.9123L30.4984 85.384L26.749 79.9067L23.6234 86.1646L22.5317 90.5457L22.9996 93.0469L24.4064 96.8003L28.3118 99.1454L24.8743 107.436L33.624 120.888L35.8106 121.513L57.6865 110.721" stroke="#FEFEFE" stroke-width="0.755705" stroke-miterlimit="22.9256"/>
<path fill-rule="evenodd" clip-rule="evenodd" d="M43.1567 93.9869L39.8752 93.8275L37.5294 91.6386L39.0922 88.3535L39.7387 84.5025L35.8106 84.9123L30.4984 85.384L26.749 79.9067L23.6234 86.1646L22.5317 90.5457L22.9996 93.0469L24.4064 96.8003L28.3118 99.1454L24.8743 107.436L33.624 120.888L35.8106 121.513L57.6865 110.721L43.1567 93.9869Z" fill="#FF5000" stroke="#F4F4F4" stroke-width="0.755705" stroke-miterlimit="22.9256"/>
<path fill-rule="evenodd" clip-rule="evenodd" d="M43.1569 93.9869L57.6867 110.721L61.1242 104.467L69.0908 106.968L75.9658 102.43L69.0908 96.4881L69.7147 93.3592L60.965 86.9452L59.2462 88.978L51.7506 86.633L49.2489 83.5073L39.7389 84.5026L39.0923 88.3536L37.5295 91.6386L39.8754 93.8276L43.1569 93.9869Z" fill="#FF5000" stroke="#FEFEFE" stroke-width="0.755705" stroke-miterlimit="22.9256"/>
<path fill-rule="evenodd" clip-rule="evenodd" d="M35.8108 121.513L57.6867 110.721L61.1242 104.467L69.0908 106.968L75.9658 102.431L84.8618 103.364L90.4891 100.547L110.175 116.189L105.955 120.41L101.893 118.537L93.7674 125.572L87.2043 123.696L78.9257 124.792V137.46L74.0814 136.992L73.6103 145.123L68.7692 149.348L65.1757 145.907L55.3311 150.913L49.0799 142.466L48.924 129.953L40.2458 127.485L35.8108 121.513Z" fill="#FF5000" stroke="#FEFEFE" stroke-width="0.755705" stroke-miterlimit="22.9256"/>
<path fill-rule="evenodd" clip-rule="evenodd" d="M40.2456 127.485L24.5461 142.778L35.4467 150.008L41.7369 159.242L45.7949 157.479L57.3583 163.422L66.108 163.109L69.0777 157.837L68.769 149.348L65.1755 145.907L55.3309 150.913L49.0797 142.466L48.9238 129.953L40.2456 127.485Z" fill="#FF5000" stroke="#FEFEFE" stroke-width="0.755705" stroke-miterlimit="22.9256"/>
<path fill-rule="evenodd" clip-rule="evenodd" d="M24.5464 142.778L19.8612 146.06L20.3291 163.109L17.8306 165.926L37.5166 183.756L46.1103 185.005L48.4529 188.446L57.3585 179.847V163.422L45.7952 157.479L41.7371 159.242L35.4469 150.008L24.5464 142.778Z" fill="#FF5000" stroke="#FEFEFE" stroke-width="0.755705" stroke-miterlimit="22.9256"/>
<path fill-rule="evenodd" clip-rule="evenodd" d="M17.8305 165.926L2.67363 172.961L1.11084 182.348L3.92127 189.231L15.7966 194.861L15.4846 207.685L22.3596 209.562L29.5465 217.069L30.7974 224.894L39.232 238.344L44.8593 230.837L75.7968 225.207L64.5453 197.05L48.4528 188.447L46.1102 185.006L37.5165 183.757L17.8305 165.926Z" fill="#FF5000" stroke="#FEFEFE" stroke-width="0.755705" stroke-miterlimit="22.9256"/>
<path fill-rule="evenodd" clip-rule="evenodd" d="M69.0779 157.837L72.9897 159.242L74.702 165.455L81.577 165.923L85.4823 170.929L91.2624 171.553L97.8255 181.88L88.6079 189.23L81.421 183.753L67.671 183.913L66.8913 195.485L64.5454 197.049L48.4529 188.447L57.3585 179.847V163.422L66.1082 163.109L69.0779 157.837Z" fill="#FF5000" stroke="#FEFEFE" stroke-width="0.755705" stroke-miterlimit="22.9256"/>
<path fill-rule="evenodd" clip-rule="evenodd" d="M78.9256 137.46L88.1366 137.769L93.1369 151.378L85.7941 154.975V160.92L73.8441 162.348V159.242L69.0777 157.837L68.769 149.348L73.6101 145.123L74.3964 137.024L78.9256 137.46Z" fill="#FF5000" stroke="#FEFEFE" stroke-width="0.755705" stroke-miterlimit="22.9256"/>
<path fill-rule="evenodd" clip-rule="evenodd" d="M64.5454 197.049L66.8912 195.485L67.671 183.912L81.421 183.753L88.6079 189.23L97.8255 181.88L101.182 186.882L106.572 183.441L112.196 187.194L114.461 195.875L97.7442 214.411L95.0085 213.943L84.2282 223.405L74.7832 222.666L64.5454 197.049Z" fill="#FF5000" stroke="#FEFEFE" stroke-width="0.755705" stroke-miterlimit="22.9256"/>
<path fill-rule="evenodd" clip-rule="evenodd" d="M114.461 195.875L121.102 203.698L122.037 214.642L127.821 229.819L127.35 240.295L135.631 241.079L131.726 248.901L133.757 254.063L131.726 259.377L137.818 261.882L143.598 259.065L150.944 265.167L157.036 258.128L169.223 260.942L166.569 268.92L176.414 286.282L169.85 291.444L161.881 286.126L158.443 286.282L155.633 289.099L147.975 281.589L146.883 273.454L142.191 271.578L135.631 272.674L127.821 264.695L113.759 267.512L110.633 258.128H103.131L102.351 250.774L100.477 242.175L93.4457 239.046L93.5984 230.443H82.3502L81.2585 225.75L84.956 222.767L95.0085 213.943L97.7442 214.411L114.461 195.875Z" fill="#FF5000" stroke="#FEFEFE" stroke-width="0.755705" stroke-miterlimit="22.9256"/>
<path fill-rule="evenodd" clip-rule="evenodd" d="M93.7672 125.572L87.2041 123.695L78.9255 124.791V137.46L88.1366 137.769L93.0719 151.205H96.0935L104.687 148.636L108.122 146.915L114.997 151.14L118.603 149.888L115.464 133.934L101.562 130.649L94.9986 134.403L93.7672 125.572Z" fill="#FF5000" stroke="#FEFEFE" stroke-width="0.755705" stroke-miterlimit="22.9256"/>
<path fill-rule="evenodd" clip-rule="evenodd" d="M93.7673 125.572L101.893 118.537L105.526 120.212L105.955 120.41L110.175 116.189L101.565 109.348L109.681 101.634L120.309 101.399L121.011 92.1687L127.025 81.0646L124.526 78.2479L138.51 71.2095L143.666 75.8248L141.48 84.1155L138.9 88.7308L135.306 92.0126L139.212 107.029L147.494 100.225L166.634 105.075L176.553 114.54L166.4 124.938L167.959 131.82L162.335 138.702L144.836 131.82L138.9 144.02L130.774 143.708L129.526 154.344L126.089 154.032L122.336 162.478L118.603 149.888L115.465 133.934L101.562 130.649L94.9987 134.403L93.7673 125.572Z" fill="#FF5000" stroke="#FEFEFE" stroke-width="0.755705" stroke-miterlimit="22.9256"/>
<path fill-rule="evenodd" clip-rule="evenodd" d="M122.336 162.479L124.523 170.922L139.836 166.856L140.303 172.33L136.32 176.165L139.836 178.744L151.321 172.802L149.134 165.682L155.46 163.653L161.708 149.732L162.335 138.703L144.836 131.82L138.9 144.02L130.774 143.708L129.526 154.344L126.089 154.032L122.336 162.479Z" fill="#FF5000" stroke="#FEFEFE" stroke-width="0.755705" stroke-miterlimit="22.9256"/>
<path fill-rule="evenodd" clip-rule="evenodd" d="M151.321 172.802L156.552 177.57L163.271 178.978L170.77 189.614L174.99 189.926L177.801 179.291L185.615 179.134L189.364 170.688L198.738 172.408L199.833 165.682L209.989 162.713L209.05 157.235L213.268 152.545L208.894 145.975L209.362 140.033L215.613 137.528L227.489 124.86L232.018 111.095L211.081 104.213L199.677 105.933L191.863 105.621L184.832 103.744L180.767 96.2376L169.987 95.2976L166.634 105.075L176.553 114.539L166.4 124.938L167.96 131.82L162.335 138.702L161.708 149.732L155.46 163.652L149.135 165.682L151.321 172.802Z" fill="#FF5000" stroke="#FEFEFE" stroke-width="0.755705" stroke-miterlimit="22.9256"/>
<path fill-rule="evenodd" clip-rule="evenodd" d="M174.99 189.926L185.3 197.121L191.466 198.058L194.988 199.626L209.83 205.412L215.766 209.477L222.485 206.196L235.923 211.822L240.768 208.381L243.113 208.228L246.236 211.354L247.643 204.316L252.019 193.055L266.081 193.212L265.766 183.513L262.176 177.414V169.28L254.206 163.962L255.768 153.482L252.331 146.6L256.392 133.303L249.988 122.199L244.205 116.881L238.269 114.221L235.455 104.837L232.018 111.095L227.489 124.86L215.613 137.528L209.362 140.033L208.894 145.975L213.268 152.545L209.05 157.235L209.989 162.713L199.833 165.682L198.738 172.408L189.364 170.688L185.615 179.135L177.801 179.291L174.99 189.926Z" fill="#FF5000" stroke="#FEFEFE" stroke-width="0.755705" stroke-miterlimit="22.9256"/>
<path fill-rule="evenodd" clip-rule="evenodd" d="M235.455 104.837L243.11 85.1303L254.673 76.3713L255.297 67.9245L262.796 60.7299L265.922 63.5466L278.733 56.6643L285.296 53.5354L294.045 46.653L308.734 43.8364L322.796 29.4472L317.484 25.3816L323.108 17.5593L314.355 16.9348L309.043 24.1294H303.107L289.357 32.5762L230.608 0.981201L199.673 2.23018L194.361 15.3703L198.111 26.3183L195.924 31.9517L186.547 28.8228L178.737 27.8828L174.672 23.1894L166.234 18.1838H158.112L160.613 25.3816L162.797 29.4472L160.298 41.3352L155.301 44.1486L151.548 52.7515L157.488 56.9766L162.017 50.2503L169.048 49.9381L172.017 54.7876L159.986 67.9245L159.518 72.9301L157.64 76.2152L143.666 75.8249L141.48 84.1156L138.9 88.7309L135.306 92.0127L139.212 107.03L147.494 100.225L166.634 105.075L169.987 95.2977L180.767 96.2377L184.832 103.744L190.878 105.358L191.863 105.621L199.677 105.933L211.081 104.213L232.018 111.095L235.455 104.837Z" fill="#FF5000" stroke="#FEFEFE" stroke-width="0.755705" stroke-miterlimit="22.9256"/>
<path fill-rule="evenodd" clip-rule="evenodd" d="M37.4904 76.8462C42.6467 76.8462 46.8282 81.0322 46.8282 86.1939C46.8282 91.3589 42.6467 95.5449 37.4904 95.5449C32.3309 95.5449 28.1494 91.3589 28.1494 86.1939C28.1494 81.0289 32.3309 76.8462 37.4904 76.8462Z" fill="#FEFEFE"/>
<path d="M37.4905 91.3135V106.197" stroke="#FEFEFE" stroke-width="0.755705" stroke-miterlimit="22.9256"/>
<path d="M35.3884 89.6449H36.9577V84.223L37.1396 83.283L36.5711 84.0961L35.6613 84.8019L34.9043 83.875L37.5653 81.2827H38.5302V89.6449H40.0735V91.1053H35.3884V89.6449Z" fill="#FF5000"/>
<path fill-rule="evenodd" clip-rule="evenodd" d="M56.7475 67.7585C61.9038 67.7585 66.0853 71.9445 66.0853 77.1063C66.0853 82.2713 61.9038 86.4573 56.7475 86.4573C51.588 86.4573 47.4065 82.2713 47.4065 77.1063C47.4065 71.9445 51.588 67.7585 56.7475 67.7585Z" fill="#FEFEFE"/>
<path d="M56.7476 82.2324V97.1159" stroke="#FEFEFE" stroke-width="0.755705" stroke-miterlimit="22.9256"/>
<path d="M59.0348 74.6963C59.0348 75.1744 58.9666 75.6656 58.8302 76.1665C58.6937 76.6674 58.515 77.1585 58.3006 77.6366C58.0861 78.1147 57.8489 78.5701 57.5922 79.0026C57.3356 79.4352 57.0822 79.8158 56.8352 80.1475L56.2277 80.7135V80.7818L57.0529 80.5736H59.1908V82.0373H54.353V81.0843C54.5479 80.8436 54.7591 80.5704 54.9865 80.2646C55.214 79.9556 55.4414 79.6304 55.6688 79.2824C55.8962 78.9376 56.1172 78.5798 56.3316 78.2058C56.5461 77.835 56.7313 77.461 56.8937 77.0902C57.0562 76.7161 57.1861 76.3518 57.2804 75.9908C57.3811 75.633 57.4201 75.298 57.4006 74.9858C57.4201 74.5987 57.3356 74.2865 57.1504 74.0491C56.9619 73.8084 56.6695 73.688 56.2699 73.688C56.0392 73.688 55.802 73.7401 55.5616 73.8474C55.3212 73.9515 55.1132 74.0783 54.9475 74.2247L54.314 73.0245C54.6161 72.7676 54.9605 72.5627 55.3472 72.4098C55.7338 72.2569 56.1854 72.1821 56.7118 72.1821C57.0432 72.1821 57.3518 72.2342 57.6345 72.3382C57.9172 72.4456 58.1641 72.6049 58.372 72.8164C58.58 73.0278 58.7424 73.2912 58.8626 73.6035C58.9829 73.9157 59.0413 74.28 59.0413 74.6931L59.0348 74.6963Z" fill="#FF5000"/>
<path fill-rule="evenodd" clip-rule="evenodd" d="M217.589 21.1501C222.748 21.1501 226.93 25.3361 226.93 30.4979C226.93 35.6629 222.748 39.8489 217.589 39.8489C212.433 39.8489 208.251 35.6629 208.251 30.4979C208.251 25.3329 212.433 21.1501 217.589 21.1501Z" fill="#FEFEFE"/>
<path d="M217.589 35.6206V50.5041" stroke="#FEFEFE" stroke-width="0.755705" stroke-miterlimit="22.9256"/>
<path d="M217.01 33.9617C217.462 33.9617 217.803 33.8089 218.037 33.5064C218.271 33.2039 218.388 32.8168 218.388 32.3485C218.388 31.3109 217.875 30.7873 216.845 30.7873H216.032V29.8506L217.397 27.5315L218.06 26.9103L217.15 27.0371H215.262V25.5735H219.671V26.5525L218.073 29.187L217.563 29.5611V29.6294L218.073 29.5481C218.329 29.5676 218.576 29.6326 218.817 29.753C219.057 29.8701 219.265 30.0425 219.444 30.2636C219.623 30.4815 219.765 30.758 219.873 31.0865C219.977 31.415 220.032 31.8021 220.032 32.2509C220.032 32.7908 219.954 33.2592 219.804 33.6527C219.652 34.0463 219.444 34.3748 219.184 34.6448C218.921 34.9082 218.612 35.1066 218.261 35.2335C217.907 35.3636 217.527 35.4254 217.124 35.4254C216.783 35.4254 216.425 35.3896 216.049 35.3148C215.672 35.2432 215.373 35.1359 215.152 34.9993L215.594 33.6202C215.785 33.7211 215.997 33.8024 216.227 33.8707C216.458 33.9357 216.718 33.965 217.014 33.965L217.01 33.9617Z" fill="#FF5000"/>
<path fill-rule="evenodd" clip-rule="evenodd" d="M126.437 86.5452C131.596 86.5452 135.778 90.7312 135.778 95.8962C135.778 101.058 131.596 105.244 126.437 105.244C121.28 105.244 117.099 101.058 117.099 95.8962C117.099 90.7312 121.28 86.5452 126.437 86.5452Z" fill="#FEFEFE"/>
<path d="M126.437 101.016V115.899" stroke="#FEFEFE" stroke-width="0.755705" stroke-miterlimit="22.9256"/>
<path d="M129.523 98.069H128.308V100.759H126.736V98.069H123.344V97.0477L126.859 91.0305H128.305V96.6606H129.52V98.069H129.523ZM126.739 94.5237L126.891 93.2813H126.836L126.427 94.4001L125.345 96.2508L124.799 96.7745L125.498 96.6639H126.742V94.527L126.739 94.5237Z" fill="#FF5000"/>
<path fill-rule="evenodd" clip-rule="evenodd" d="M98.7643 108.096C103.924 108.096 108.102 112.282 108.102 117.447C108.102 122.612 103.921 126.795 98.7643 126.795C93.6048 126.795 89.4265 122.609 89.4265 117.447C89.4265 112.282 93.608 108.096 98.7643 108.096Z" fill="#FEFEFE"/>
<path d="M98.7644 122.567V137.45" stroke="#FEFEFE" stroke-width="0.755705" stroke-miterlimit="22.9256"/>
<path d="M98.0562 120.869C98.5533 120.869 98.9302 120.706 99.1868 120.384C99.4435 120.062 99.5735 119.649 99.5735 119.142C99.5735 118.563 99.4208 118.143 99.1186 117.887C98.8165 117.63 98.3811 117.499 97.8093 117.499L96.9125 117.555V112.517H100.922V114.117H98.3454V116.091L98.7937 116.036C99.5313 116.065 100.119 116.338 100.555 116.865C100.99 117.389 101.208 118.124 101.208 119.074C101.208 119.617 101.13 120.095 100.974 120.508C100.818 120.921 100.607 121.266 100.334 121.542C100.064 121.819 99.7392 122.027 99.3623 122.164C98.9854 122.303 98.576 122.372 98.1342 122.372C97.8028 122.372 97.4713 122.339 97.1367 122.268C96.7988 122.199 96.5259 122.108 96.3147 121.998L96.7436 120.606C97.0815 120.781 97.5201 120.869 98.0529 120.869H98.0562Z" fill="#FF5000"/>
<path fill-rule="evenodd" clip-rule="evenodd" d="M78.9548 116.423C84.1143 116.423 88.2926 120.609 88.2926 125.774C88.2926 130.939 84.111 135.122 78.9548 135.122C73.7953 135.122 69.6138 130.936 69.6138 125.774C69.6138 120.609 73.7953 116.423 78.9548 116.423Z" fill="#FEFEFE"/>
<path d="M78.9548 130.893V145.777" stroke="#FEFEFE" stroke-width="0.755705" stroke-miterlimit="22.9256"/>
<path d="M81.6776 127.608C81.6776 128.096 81.6093 128.538 81.4761 128.935C81.3462 129.329 81.161 129.667 80.927 129.944C80.6931 130.22 80.4105 130.431 80.0855 130.578C79.7606 130.724 79.4032 130.799 79.0166 130.799C78.6137 130.799 78.2401 130.727 77.8989 130.584C77.5578 130.441 77.2654 130.223 77.0184 129.927C76.7683 129.635 76.5766 129.254 76.4401 128.792C76.3004 128.327 76.2322 127.777 76.2322 127.143C76.2322 126.206 76.3459 125.364 76.5701 124.626C76.7943 123.884 77.0997 123.247 77.4798 122.713C77.8599 122.18 78.2986 121.75 78.7924 121.422C79.283 121.097 79.7996 120.872 80.3422 120.752L80.7549 122.092C80.3942 122.183 80.0596 122.329 79.7444 122.531C79.4292 122.733 79.1498 122.98 78.8996 123.263C78.6495 123.546 78.4415 123.871 78.2726 124.235C78.1004 124.6 77.9737 124.983 77.8924 125.387C78.0484 125.166 78.2466 124.987 78.487 124.847C78.7275 124.71 79.0231 124.642 79.3708 124.642C79.7022 124.642 80.0076 124.701 80.2935 124.821C80.5729 124.941 80.8198 125.123 81.0245 125.371C81.2325 125.621 81.3949 125.93 81.5086 126.304C81.6224 126.678 81.6841 127.111 81.6841 127.608H81.6776ZM80.105 127.706C80.105 127.143 80.0108 126.737 79.8224 126.486C79.6307 126.232 79.3383 126.106 78.9516 126.106C78.6722 126.106 78.435 126.184 78.2401 126.34C78.0451 126.496 77.9087 126.681 77.8209 126.893C77.8112 126.994 77.808 127.098 77.808 127.205C77.808 127.312 77.808 127.413 77.808 127.517C77.808 127.755 77.8307 127.982 77.8762 128.2C77.9249 128.415 77.9964 128.607 78.0939 128.779C78.1914 128.948 78.3116 129.085 78.4545 129.186C78.5975 129.287 78.7729 129.339 78.9776 129.339C79.3123 129.339 79.5852 129.199 79.7931 128.916C80.0011 128.636 80.1083 128.233 80.1083 127.709L80.105 127.706Z" fill="#FF5000"/>
<path fill-rule="evenodd" clip-rule="evenodd" d="M81.2585 81.803C86.4148 81.803 90.5963 85.989 90.5963 91.154C90.5963 96.3157 86.4148 100.502 81.2585 100.502C76.099 100.502 71.9175 96.3157 71.9175 91.154C71.9175 85.989 76.099 81.803 81.2585 81.803Z" fill="#FEFEFE"/>
<path d="M81.2585 96.2766V111.16" stroke="#FEFEFE" stroke-width="0.755705" stroke-miterlimit="22.9256"/>
<path d="M78.6528 93.6649C78.6528 93.3332 78.6918 93.0372 78.7633 92.777C78.838 92.5135 78.9388 92.2793 79.0687 92.0744C79.1954 91.8695 79.3384 91.6809 79.5041 91.515C79.6665 91.3491 79.8355 91.1963 80.0207 91.0597C79.66 90.7734 79.3806 90.4449 79.1727 90.0741C78.9648 89.7001 78.8608 89.2382 78.8608 88.6853C78.8608 87.9015 79.0785 87.2835 79.5138 86.8216C79.9525 86.3598 80.5503 86.1321 81.3138 86.1321C82.0124 86.1321 82.5777 86.3337 83.0098 86.7403C83.4419 87.1436 83.6564 87.7193 83.6564 88.4641C83.6564 89.0073 83.5557 89.4692 83.3542 89.8432C83.1528 90.2205 82.8636 90.5685 82.4867 90.8905C82.9448 91.2125 83.2892 91.5768 83.5199 91.9801C83.7506 92.3834 83.8643 92.8941 83.8643 93.512C83.8643 93.9251 83.7993 94.2992 83.6629 94.6309C83.5297 94.9627 83.3477 95.2424 83.1138 95.4733C82.8766 95.7042 82.6004 95.8766 82.2788 95.997C81.9571 96.1173 81.6062 96.1759 81.2326 96.1759C80.8459 96.1759 80.4983 96.1173 80.1864 96.0035C79.8745 95.8864 79.6016 95.7238 79.3709 95.5123C79.1434 95.3009 78.9647 95.0375 78.8413 94.7252C78.7178 94.413 78.6528 94.0585 78.6528 93.6617V93.6649ZM82.2918 93.512C82.2918 93.2811 82.256 93.0762 82.1781 92.8908C82.1066 92.7054 82.0059 92.5428 81.8791 92.3997C81.7524 92.2566 81.616 92.1265 81.4633 92.0061C81.3073 91.8858 81.1611 91.7719 81.0116 91.6614C80.69 91.9086 80.4658 92.1785 80.3423 92.468C80.2156 92.7575 80.1539 93.0502 80.1539 93.3429C80.1539 93.73 80.2514 94.052 80.4463 94.3154C80.638 94.5789 80.9109 94.709 81.2651 94.709C81.5802 94.709 81.8304 94.6081 82.0156 94.4097C82.2008 94.2113 82.2918 93.9089 82.2918 93.5056V93.512ZM80.4301 88.7113C80.4301 88.9228 80.4593 89.1081 80.521 89.2708C80.5795 89.4334 80.6608 89.5765 80.7615 89.7066C80.8622 89.8367 80.9792 89.9538 81.1124 90.0579C81.2456 90.1652 81.3853 90.2628 81.5347 90.3571C81.7459 90.1067 81.9051 89.8627 82.0091 89.6188C82.1163 89.3749 82.1683 89.0951 82.1683 88.7829C82.1683 88.4056 82.0838 88.1129 81.9116 87.908C81.7427 87.6998 81.538 87.5957 81.2976 87.5957C80.9954 87.5957 80.7745 87.7096 80.638 87.934C80.4983 88.1617 80.4301 88.4186 80.4301 88.7146V88.7113Z" fill="#FF5000"/>
<path fill-rule="evenodd" clip-rule="evenodd" d="M117.609 204.605C122.768 204.605 126.947 208.791 126.947 213.956C126.947 219.118 122.765 223.304 117.609 223.304C112.449 223.304 108.268 219.118 108.268 213.956C108.268 208.791 112.449 204.605 117.609 204.605Z" fill="#FEFEFE"/>
<path d="M117.609 219.079V233.959" stroke="#FEFEFE" stroke-width="0.755705" stroke-miterlimit="22.9256"/>
<path d="M114.854 212.148C114.854 211.172 115.084 210.394 115.549 209.809C116.013 209.224 116.683 208.934 117.554 208.934C118.408 208.934 119.09 209.237 119.6 209.845C120.111 210.453 120.364 211.364 120.364 212.577C120.364 213.644 120.247 214.564 120.02 215.342C119.789 216.119 119.48 216.766 119.097 217.28C118.71 217.794 118.265 218.191 117.758 218.464C117.255 218.74 116.728 218.913 116.186 218.975L115.799 217.596C116.631 217.43 117.274 217.069 117.735 216.512C118.197 215.956 118.493 215.283 118.622 214.489C118.447 214.72 118.255 214.88 118.054 214.974C117.852 215.065 117.589 215.114 117.268 215.114C116.978 215.114 116.693 215.055 116.4 214.941C116.111 214.824 115.851 214.645 115.617 214.402C115.386 214.158 115.201 213.849 115.055 213.478C114.912 213.104 114.841 212.661 114.841 212.148H114.854ZM116.426 212.05C116.426 212.577 116.543 212.974 116.767 213.244C116.995 213.514 117.284 213.65 117.638 213.65C117.908 213.65 118.135 213.605 118.324 213.507C118.509 213.41 118.652 213.276 118.756 213.101C118.775 213 118.785 212.892 118.788 212.782C118.795 212.671 118.795 212.567 118.795 212.466C118.795 212.18 118.772 211.913 118.726 211.66C118.678 211.406 118.606 211.188 118.502 211.003C118.398 210.821 118.268 210.674 118.112 210.564C117.953 210.453 117.761 210.398 117.541 210.398C117.186 210.398 116.913 210.544 116.719 210.84C116.524 211.133 116.426 211.539 116.426 212.053V212.05Z" fill="#FF5000"/>
<path fill-rule="evenodd" clip-rule="evenodd" d="M73.8441 147.878C79.0036 147.878 83.1819 152.064 83.1819 157.226C83.1819 162.391 79.0004 166.577 73.8441 166.577C68.6846 166.577 64.5063 162.391 64.5063 157.226C64.5063 152.064 68.6879 147.878 73.8441 147.878Z" fill="#FEFEFE"/>
<path d="M73.8442 162.348V177.232" stroke="#FEFEFE" stroke-width="0.755705" stroke-miterlimit="22.9256"/>
<path d="M68.3402 160.595H69.9128V155.173L70.0915 154.233L69.5261 155.046L68.6164 155.749L67.8594 154.825L70.5203 152.233H71.4821V160.595H73.0254V162.059H68.337V160.595H68.3402ZM79.7476 159.063C79.7476 159.551 79.6827 159.994 79.5462 160.387C79.413 160.784 79.2311 161.119 78.9939 161.395C78.76 161.672 78.4805 161.883 78.1556 162.03C77.8275 162.176 77.4733 162.251 77.0867 162.251C76.6805 162.251 76.3102 162.179 75.969 162.036C75.6279 161.893 75.3354 161.675 75.0853 161.382C74.8383 161.09 74.6434 160.709 74.5069 160.244C74.3705 159.779 74.3023 159.229 74.3023 158.595C74.3023 157.658 74.416 156.819 74.6401 156.078C74.8643 155.339 75.1665 154.702 75.5499 154.165C75.93 153.635 76.3686 153.202 76.8593 152.877C77.3499 152.549 77.8664 152.327 78.409 152.207L78.8217 153.547C78.461 153.638 78.1264 153.788 77.8112 153.989C77.4961 154.191 77.2166 154.435 76.9665 154.721C76.7163 155.007 76.5051 155.333 76.3361 155.694C76.1639 156.058 76.0372 156.442 75.956 156.845C76.112 156.627 76.3102 156.445 76.5506 156.308C76.7878 156.169 77.0867 156.1 77.4343 156.1C77.7657 156.1 78.0744 156.159 78.3571 156.279C78.6365 156.4 78.8834 156.582 79.0914 156.832C79.296 157.083 79.4585 157.392 79.5755 157.762C79.6892 158.136 79.7476 158.569 79.7476 159.067V159.063ZM78.1751 159.158C78.1751 158.598 78.0809 158.188 77.8925 157.938C77.7008 157.684 77.4083 157.557 77.0185 157.557C76.739 157.557 76.5019 157.635 76.3069 157.795C76.112 157.951 75.9755 158.133 75.891 158.348C75.8813 158.449 75.8748 158.553 75.8748 158.657C75.8748 158.764 75.8748 158.865 75.8748 158.969C75.8748 159.21 75.8975 159.437 75.943 159.652C75.9918 159.87 76.0632 160.062 76.1607 160.231C76.2582 160.4 76.3784 160.537 76.5213 160.638C76.6643 160.738 76.8398 160.79 77.0445 160.79C77.3791 160.79 77.652 160.651 77.8599 160.368C78.0679 160.088 78.1751 159.685 78.1751 159.161V159.158Z" fill="#FF5000"/>
<path fill-rule="evenodd" clip-rule="evenodd" d="M190.027 114.049C195.183 114.049 199.365 118.235 199.365 123.396C199.365 128.561 195.183 132.747 190.027 132.747C184.868 132.747 180.686 128.561 180.686 123.396C180.686 118.231 184.868 114.049 190.027 114.049Z" fill="#FEFEFE"/>
<path d="M190.027 128.516V143.399" stroke="#FEFEFE" stroke-width="0.755705" stroke-miterlimit="22.9256"/>
<path d="M184.64 126.847H186.213V121.425L186.391 120.488L185.826 121.302L184.916 122.004L184.156 121.08L186.817 118.485H187.782V126.847H189.325V128.311H184.64V126.847ZM191.21 126.847H192.782V121.425L192.961 120.488L192.396 121.302L191.486 122.004L190.729 121.08L193.39 118.485H194.355V126.847H195.898V128.311H191.213V126.847H191.21Z" fill="#FF5000"/>
<path fill-rule="evenodd" clip-rule="evenodd" d="M146.646 121.562C151.805 121.562 155.987 125.748 155.987 130.909C155.987 136.074 151.805 140.26 146.646 140.26C141.489 140.26 137.308 136.074 137.308 130.909C137.308 125.745 141.489 121.562 146.646 121.562Z" fill="#FEFEFE"/>
<path d="M146.646 136.032V150.916" stroke="#FEFEFE" stroke-width="0.755705" stroke-miterlimit="22.9256"/>
<path d="M141.353 134.373H142.925V128.951L143.104 128.015L142.542 128.828L141.632 129.53L140.872 128.607L143.533 126.011H144.498V134.373H146.041V135.837H141.353V134.373ZM149.245 134.526C149.742 134.526 150.119 134.364 150.376 134.042C150.632 133.72 150.762 133.307 150.762 132.799C150.762 132.22 150.609 131.801 150.307 131.544C150.005 131.287 149.57 131.157 149.001 131.157L148.104 131.212V126.174H152.114V127.774H149.537V129.745L149.986 129.69C150.723 129.719 151.315 129.992 151.75 130.516C152.185 131.04 152.403 131.775 152.403 132.724C152.403 133.268 152.325 133.746 152.166 134.162C152.01 134.575 151.799 134.92 151.526 135.196C151.256 135.473 150.931 135.678 150.554 135.818C150.177 135.957 149.768 136.026 149.329 136.026C148.998 136.026 148.667 135.99 148.329 135.922C147.994 135.853 147.721 135.766 147.51 135.655L147.936 134.26C148.277 134.435 148.712 134.523 149.245 134.523V134.526Z" fill="#FF5000"/>
<path fill-rule="evenodd" clip-rule="evenodd" d="M52.696 124.752C57.8523 124.752 62.0338 128.938 62.0338 134.1C62.0338 139.265 57.8523 143.451 52.696 143.451C47.5365 143.451 43.355 139.265 43.355 134.1C43.355 128.938 47.5365 124.752 52.696 124.752Z" fill="#FEFEFE"/>
<path d="M52.696 139.223V154.106" stroke="#FEFEFE" stroke-width="0.755705" stroke-miterlimit="22.9256"/>
<path d="M50.5776 138.93L53.1833 131.41L53.6804 130.737L52.9916 130.874H50.0837V129.273H55.3082V129.823L52.1761 138.93H50.5776Z" fill="#FF5000"/>
<path fill-rule="evenodd" clip-rule="evenodd" d="M86.4245 177.411C91.584 177.411 95.7656 181.597 95.7656 186.758C95.7656 191.923 91.584 196.109 86.4245 196.109C81.2683 196.109 77.0835 191.923 77.0835 186.758C77.0835 181.597 81.2683 177.411 86.4245 177.411Z" fill="#FEFEFE"/>
<path d="M86.4246 191.881V206.765" stroke="#FEFEFE" stroke-width="0.755705" stroke-miterlimit="22.9256"/>
<path d="M81.0927 190.112H82.6653V184.69L82.844 183.753L82.2787 184.566L81.3689 185.269L80.6086 184.345L83.2696 181.75H84.2346V190.112H85.7779V191.576H81.0927V190.112ZM92.0031 184.235C92.0031 184.713 91.9348 185.204 91.7951 185.705C91.6587 186.206 91.48 186.697 91.2655 187.172C91.0478 187.65 90.8139 188.105 90.554 188.538C90.2973 188.97 90.0439 189.351 89.797 189.683L89.1894 190.248V190.317L90.0147 190.112H92.1493V191.576H87.3114V190.626C87.5064 190.385 87.7176 190.112 87.945 189.803C88.1724 189.497 88.3999 189.169 88.6273 188.824C88.8547 188.479 89.0757 188.121 89.2901 187.747C89.5046 187.373 89.6897 187.002 89.8522 186.628C90.0147 186.254 90.1446 185.89 90.2388 185.532C90.3396 185.175 90.3785 184.84 90.3591 184.527C90.3785 184.14 90.2941 183.828 90.1089 183.587C89.9237 183.347 89.628 183.23 89.2284 183.23C88.9977 183.23 88.7605 183.282 88.5168 183.386C88.2764 183.493 88.0717 183.62 87.9028 183.766L87.2692 182.566C87.5746 182.309 87.9158 182.104 88.3024 181.951C88.689 181.798 89.1439 181.724 89.667 181.724C89.9952 181.724 90.3038 181.776 90.5897 181.88C90.8724 181.987 91.1193 182.143 91.3273 182.358C91.532 182.566 91.6944 182.829 91.8146 183.142C91.9348 183.457 91.9933 183.818 91.9933 184.235H92.0031Z" fill="#FF5000"/>
<path fill-rule="evenodd" clip-rule="evenodd" d="M49.681 186.476C54.8405 186.476 59.0221 190.662 59.0221 195.827C59.0221 200.992 54.8405 205.174 49.681 205.174C44.5248 205.174 40.3433 200.988 40.3433 195.827C40.3433 190.662 44.5248 186.476 49.681 186.476Z" fill="#FEFEFE"/>
<path d="M49.6809 200.949V215.829" stroke="#FEFEFE" stroke-width="0.755705" stroke-miterlimit="22.9256"/>
<path d="M44.3493 199.18H45.9218V193.755L46.1005 192.818L45.5352 193.631L44.6254 194.334L43.8684 193.41L46.5294 190.818H47.4944V199.18H49.0377V200.644H44.3525V199.18H44.3493ZM52.4751 199.372C52.9235 199.372 53.2679 199.219 53.5019 198.916C53.7358 198.611 53.8528 198.227 53.8528 197.759C53.8528 196.718 53.3394 196.197 52.3095 196.197H51.4972V195.261L52.8618 192.942L53.5246 192.32L52.6149 192.444H50.7272V190.98H55.1394V191.959L53.5408 194.594L53.0307 194.968V195.036L53.5408 194.955C53.7975 194.971 54.0444 195.039 54.2849 195.16C54.5253 195.277 54.7332 195.446 54.9119 195.67C55.0906 195.888 55.2336 196.165 55.3408 196.493C55.4448 196.822 55.5 197.212 55.5 197.661C55.5 198.201 55.4221 198.669 55.2726 199.063C55.1199 199.456 54.9119 199.785 54.652 200.052C54.3921 200.315 54.0834 200.513 53.7293 200.64C53.3751 200.77 52.9983 200.832 52.5921 200.832C52.2542 200.832 51.8936 200.793 51.5199 200.722C51.1431 200.65 50.8441 200.543 50.6232 200.403L51.0651 199.024C51.2568 199.125 51.468 199.206 51.6986 199.271C51.9293 199.336 52.1892 199.369 52.4849 199.369L52.4751 199.372Z" fill="#FF5000"/>
<path fill-rule="evenodd" clip-rule="evenodd" d="M230.296 159.763C235.455 159.763 239.634 163.949 239.634 169.114C239.634 174.275 235.452 178.461 230.296 178.461C225.136 178.461 220.955 174.275 220.955 169.114C220.955 163.949 225.136 159.763 230.296 159.763Z" fill="#FEFEFE"/>
<path d="M230.296 174.236V189.12" stroke="#FEFEFE" stroke-width="0.755705" stroke-miterlimit="22.9256"/>
<path d="M224.964 172.467H226.533V167.045L226.712 166.108L226.147 166.921L225.237 167.624L224.477 166.7L227.138 164.105H228.106V172.467H229.649V173.931H224.964V172.467ZM236.742 171.238H235.53V173.927H233.957V171.238H230.569V170.216L234.084 164.199H235.533V169.829H236.745V171.234L236.742 171.238ZM233.957 167.692L234.11 166.45H234.055L233.642 167.569L232.56 169.419L232.014 169.943L232.713 169.832H233.957V167.692Z" fill="#FF5000"/>
<path fill-rule="evenodd" clip-rule="evenodd" d="M40.993 144.183C46.1525 144.183 50.3341 148.369 50.3341 153.531C50.3341 158.696 46.1525 162.882 40.993 162.882C35.8336 162.882 31.6553 158.696 31.6553 153.531C31.6553 148.369 35.8368 144.183 40.993 144.183Z" fill="#FEFEFE"/>
<path d="M40.9929 158.654V173.537" stroke="#FEFEFE" stroke-width="0.755705" stroke-miterlimit="22.9256"/>
<path d="M35.4924 156.9H37.065V151.478L37.2437 150.538L36.6783 151.351L35.7686 152.054L35.0083 151.13L37.6693 148.538H38.6342V156.9H40.1775V158.364H35.4924V156.9ZM41.344 153.518C41.344 152.617 41.4089 151.849 41.5324 151.215C41.6591 150.577 41.8378 150.06 42.0782 149.66C42.3187 149.26 42.6111 148.971 42.962 148.785C43.3129 148.603 43.7093 148.509 44.1609 148.509C44.6385 148.509 45.0544 148.6 45.4085 148.785C45.7627 148.971 46.0551 149.263 46.2923 149.66C46.5262 150.06 46.6984 150.577 46.8154 151.215C46.9291 151.849 46.9876 152.617 46.9876 153.518C46.9876 154.428 46.9226 155.206 46.7926 155.843C46.6659 156.484 46.4807 157.001 46.2435 157.404C46.0031 157.804 45.7107 158.094 45.3598 158.279C45.0089 158.462 44.6125 158.556 44.1609 158.556C43.6833 158.556 43.2674 158.461 42.9132 158.273C42.5591 158.084 42.2667 157.785 42.0392 157.375C41.8086 156.965 41.6364 156.445 41.5227 155.811C41.4057 155.176 41.3472 154.412 41.3472 153.518H41.344ZM42.9847 153.518C42.9847 154.75 43.0757 155.655 43.2609 156.23C43.4428 156.806 43.7482 157.092 44.1706 157.092C44.3753 157.092 44.5508 157.027 44.7002 156.9C44.8529 156.77 44.9731 156.562 45.0641 156.279C45.1551 155.996 45.2266 155.625 45.2721 155.176C45.3175 154.724 45.3403 154.171 45.3403 153.521C45.3403 152.298 45.2526 151.4 45.0739 150.831C44.8952 150.262 44.5898 149.976 44.1576 149.976C43.9464 149.976 43.7677 150.041 43.6215 150.168C43.4753 150.298 43.3551 150.506 43.2609 150.789C43.1699 151.072 43.0984 151.443 43.0529 151.895C43.0075 152.344 42.9847 152.887 42.9847 153.521V153.518Z" fill="#FF5000"/>
</svg>
