<svg width="35" height="35" viewBox="0 0 35 35" fill="none" xmlns="http://www.w3.org/2000/svg">
<path d="M17.5 0C7.8575 0 0 7.8575 0 17.5C0 27.1425 7.8575 35 17.5 35C27.1425 35 35 27.1425 35 17.5C35 7.8575 27.1425 0 17.5 0ZM20.265 18.34L16.765 22.5575C16.5025 22.8725 16.135 23.03 15.75 23.03C15.4525 23.03 15.155 22.9425 14.91 22.7325C14.3675 22.2775 14.28 21.455 14.735 20.895L17.5525 17.5L14.735 14.105C14.28 13.545 14.3675 12.7225 14.91 12.2675C15.47 11.795 16.31 11.8825 16.765 12.4425L20.265 16.66C20.6675 17.15 20.6675 17.85 20.265 18.34Z" fill="#F0F2F5"/>
</svg>
